<svg width="22" height="11" viewBox="0 0 22 11" fill="none" xmlns="http://www.w3.org/2000/svg">
<path d="M9.68964 3.48981V4.55981C9.68964 4.55981 9.74974 4.63979 9.78974 4.65979C9.82974 4.67979 9.87975 4.65979 9.92975 4.65979H17.7997C18.0503 4.65044 18.2999 4.69572 18.5313 4.79242C18.7627 4.88911 18.9703 5.0349 19.1397 5.21979C19.6597 5.75979 20.2097 6.28982 20.7397 6.81982C20.9532 7.00922 21.1074 7.25631 21.1837 7.53131C21.26 7.80632 21.2551 8.0975 21.1697 8.36981C21.102 8.63583 20.9597 8.87696 20.7595 9.06476C20.5593 9.25256 20.3095 9.3792 20.0397 9.42981C19.7894 9.49107 19.5273 9.48547 19.2799 9.41351C19.0324 9.34155 18.8082 9.20578 18.6297 9.01984C18.2297 8.61984 17.8398 8.21983 17.4298 7.82983C17.3496 7.76427 17.2525 7.72268 17.1497 7.70984H15.8597C15.9097 7.81984 15.9397 7.90982 15.9797 7.99982L16.7797 9.7998C16.8285 9.86658 16.8547 9.94716 16.8547 10.0298C16.8547 10.1125 16.8285 10.1931 16.7797 10.2598C16.7329 10.3183 16.6705 10.3624 16.5998 10.3871C16.5291 10.4119 16.4528 10.4163 16.3797 10.3998C16.3081 10.3843 16.2418 10.3502 16.1874 10.3011C16.1331 10.252 16.0924 10.1895 16.0696 10.1198C15.7396 9.37981 15.3996 8.64979 15.0696 7.90979C15.0511 7.8438 15.0099 7.78655 14.9532 7.74811C14.8964 7.70967 14.8279 7.69255 14.7597 7.69983C11.8897 7.69983 9.01972 7.69983 6.14972 7.69983C5.82972 7.69983 5.65966 7.76983 5.57966 8.07983C5.52526 8.22695 5.46186 8.37055 5.38971 8.50983H15.6697C15.8086 8.51138 15.9441 8.55305 16.0598 8.62982C16.1242 8.67602 16.1704 8.74325 16.1905 8.81995C16.2106 8.89664 16.2033 8.97795 16.1697 9.0498C16.1501 9.12834 16.1052 9.19826 16.0419 9.24884C15.9787 9.29942 15.9006 9.32788 15.8196 9.32983H5.20966C5.06966 9.32983 4.98964 9.32982 4.93964 9.49982C4.88964 9.66982 4.75974 9.9098 4.66974 10.1098C4.65091 10.1654 4.62084 10.2165 4.58149 10.2601C4.54214 10.3036 4.49426 10.3387 4.44086 10.363C4.38746 10.3874 4.32974 10.4006 4.27106 10.4017C4.21238 10.4029 4.154 10.392 4.09968 10.3698C4.04527 10.3457 3.99666 10.3103 3.95698 10.266C3.91729 10.2217 3.88742 10.1693 3.86945 10.1126C3.85149 10.0559 3.84579 9.99599 3.85273 9.93689C3.85966 9.87779 3.87913 9.82087 3.90973 9.76984C4.23973 9.00984 4.57973 8.25983 4.90973 7.50983C4.94346 7.47296 4.9621 7.42479 4.9621 7.37482C4.9621 7.32485 4.94346 7.27668 4.90973 7.23981L0.909734 3.23981C0.709321 3.04871 0.564523 2.80684 0.490789 2.53992C0.417055 2.273 0.41713 1.99105 0.491033 1.72418C0.564936 1.45731 0.709811 1.2155 0.910345 1.02454C1.11088 0.833568 1.35954 0.700613 1.6297 0.639832C1.88254 0.581991 2.146 0.590255 2.39472 0.663818C2.64343 0.737382 2.86906 0.873748 3.04975 1.05981C3.43975 1.44981 3.84966 1.8198 4.20966 2.2298C4.34223 2.39546 4.51426 2.52526 4.70991 2.60736C4.90555 2.68946 5.11857 2.72128 5.32966 2.69983C7.11966 2.69983 8.90965 2.69983 10.6997 2.69983H10.8897C10.9496 2.6905 11.0108 2.69425 11.0692 2.71082C11.1275 2.72738 11.1814 2.75635 11.2275 2.79578C11.2735 2.83521 11.3105 2.88414 11.3359 2.93921C11.3612 2.99428 11.3743 3.05419 11.3743 3.11481C11.3743 3.17543 11.3612 3.23534 11.3359 3.29041C11.3105 3.34547 11.2735 3.39441 11.2275 3.43384C11.1814 3.47327 11.1275 3.50223 11.0692 3.5188C11.0108 3.53537 10.9496 3.53917 10.8897 3.52985H9.82966L9.68964 3.48981ZM1.78974 1.40979C1.75004 1.40288 1.70945 1.40288 1.66974 1.40979C1.54571 1.44177 1.43276 1.50718 1.34333 1.59888C1.25389 1.69057 1.1913 1.80502 1.16242 1.92981C1.13354 2.0546 1.13957 2.18498 1.17963 2.30664C1.2197 2.4283 1.29234 2.5366 1.38971 2.61981C2.72305 3.95315 4.03298 5.25979 5.31965 6.53979C5.41962 6.64804 5.54233 6.73289 5.6789 6.78821C5.81547 6.84353 5.96256 6.86796 6.10969 6.8598H17.3497C17.4511 6.85608 17.552 6.8748 17.6453 6.91455C17.7387 6.95431 17.8221 7.01417 17.8897 7.08984C18.3097 7.52984 18.7497 7.94982 19.1697 8.37982C19.2479 8.47279 19.349 8.5438 19.463 8.58588C19.5769 8.62796 19.6998 8.63965 19.8196 8.61981C19.948 8.59974 20.068 8.54387 20.166 8.45862C20.2639 8.37337 20.3359 8.26218 20.3735 8.13788C20.4111 8.01357 20.4129 7.88118 20.3786 7.75592C20.3443 7.63066 20.2754 7.51764 20.1798 7.42981L18.5497 5.78979C18.4533 5.68857 18.3368 5.60869 18.2076 5.5553C18.0784 5.5019 17.9395 5.47618 17.7997 5.4798H6.48969C6.40389 5.48288 6.31844 5.46753 6.23908 5.43475C6.15972 5.40198 6.08834 5.35253 6.02973 5.28979L4.3697 3.62982L2.3697 1.62982C2.2947 1.55336 2.20396 1.4941 2.10383 1.45612C2.00369 1.41813 1.89658 1.4023 1.78974 1.40979V1.40979ZM8.78974 4.64984V3.49982H5.33967C5.70967 3.86982 6.04972 4.21982 6.39972 4.49982C6.47542 4.56479 6.5702 4.60338 6.66974 4.6098H8.78974V4.64984Z" fill="#5B5755"/>
<path d="M4.23012 10.4898C4.16416 10.5035 4.09613 10.5035 4.03017 10.4898C3.97216 10.4671 3.91977 10.4321 3.8766 10.3873C3.83344 10.3424 3.80053 10.2886 3.78017 10.2298C3.72608 10.0916 3.72608 9.93802 3.78017 9.79979L4.78017 7.52984C4.78017 7.44984 4.78017 7.41978 4.78017 7.34978C3.40017 5.98978 2.04017 4.61978 0.780168 3.34978C0.561592 3.15095 0.404753 2.89349 0.328508 2.60802C0.252264 2.32255 0.25978 2.02113 0.350115 1.7398C0.422874 1.46102 0.573385 1.20866 0.784075 1.01213C0.994764 0.815609 1.25702 0.683024 1.54018 0.629811C1.80381 0.567416 2.07921 0.575192 2.33888 0.652394C2.59856 0.729595 2.83343 0.87353 3.02016 1.06981L3.34011 1.37981C3.63011 1.65981 3.92019 1.9398 4.18019 2.2398C4.3083 2.39641 4.47269 2.51933 4.6592 2.59777C4.8457 2.67621 5.04861 2.70779 5.25014 2.68981C6.55014 2.68981 7.88017 2.68981 9.16017 2.68981H10.8102C10.8754 2.68979 10.9399 2.70277 11 2.72802C11.0601 2.75326 11.1145 2.79028 11.1602 2.83684C11.2058 2.88341 11.2417 2.93859 11.2658 2.9992C11.2898 3.0598 11.3015 3.12462 11.3002 3.18981C11.295 3.32067 11.2386 3.44423 11.1432 3.53399C11.0478 3.62374 10.9211 3.67251 10.7902 3.66979H9.79018V3.82982C9.79018 4.10982 9.79018 4.38978 9.79018 4.65978H17.7902C18.0484 4.65112 18.3055 4.69851 18.5437 4.79863C18.7819 4.89875 18.9957 5.04924 19.1702 5.2398C19.5202 5.5998 19.8801 5.95979 20.2301 6.29979L20.7702 6.83983C20.9412 6.97963 21.0815 7.15334 21.1821 7.35003C21.2828 7.54671 21.3415 7.76206 21.3548 7.98259C21.368 8.20313 21.3355 8.42406 21.2592 8.6314C21.1829 8.83873 21.0645 9.028 20.9114 9.18731C20.7583 9.34661 20.5739 9.47247 20.3698 9.557C20.1656 9.64152 19.9462 9.68286 19.7254 9.67839C19.5045 9.67393 19.2869 9.62381 19.0863 9.53112C18.8858 9.43842 18.7067 9.30518 18.5602 9.13982L18.0302 8.6198L17.3601 7.94982C17.2965 7.89363 17.215 7.86173 17.1301 7.85979H16.0001C16.0001 7.91979 16.0001 7.97984 16.0801 8.02984L16.8801 9.82982C16.9259 9.91536 16.9446 10.0127 16.9339 10.1091C16.9231 10.2055 16.8835 10.2964 16.8201 10.3698C16.7645 10.4377 16.6911 10.4887 16.608 10.517C16.525 10.5452 16.4356 10.5497 16.3501 10.5298C16.2658 10.5136 16.1873 10.4755 16.1223 10.4193C16.0574 10.3631 16.0084 10.2909 15.9801 10.2098L15.7201 9.6198C15.7201 9.6198 15.7202 9.51979 15.6502 9.47979H5.20009C5.07009 9.47979 5.03013 9.47978 4.99013 9.59978C4.95013 9.71978 4.85017 9.93978 4.78017 10.0998L4.72011 10.2198C4.67175 10.306 4.60028 10.377 4.51369 10.4247C4.4271 10.4724 4.32885 10.495 4.23012 10.4898V10.4898ZM1.87013 0.64983H1.53017C1.27318 0.695315 1.03466 0.813761 0.843157 0.991078C0.651655 1.16839 0.515181 1.39709 0.45009 1.64983C0.366069 1.90475 0.358237 2.1786 0.427507 2.43792C0.496777 2.69723 0.640156 2.93073 0.840105 3.10979L4.89015 7.15978C4.93829 7.20052 4.97063 7.25686 4.98158 7.31896C4.99254 7.38106 4.98137 7.44505 4.95009 7.49981L3.95009 9.76982C3.92807 9.82029 3.91677 9.87473 3.91677 9.9298C3.91677 9.98486 3.92807 10.0394 3.95009 10.0898C3.96618 10.1306 3.99054 10.1675 4.0215 10.1985C4.05246 10.2294 4.08942 10.2537 4.13014 10.2698C4.32014 10.3598 4.50011 10.2698 4.60011 10.0498L4.66017 9.9298C4.73017 9.7698 4.81013 9.60981 4.87013 9.43981C4.89111 9.36915 4.93743 9.30868 5.00014 9.26995C5.06285 9.23121 5.13753 9.21691 5.2101 9.22979H15.6001C15.5001 9.00979 15.3902 8.77979 15.2902 8.54979H5.29018V8.43981C5.31762 8.39183 5.34098 8.34163 5.36012 8.28978C5.40673 8.20287 5.44683 8.11266 5.48012 8.01983C5.57012 7.65983 5.79012 7.58983 6.11012 7.58983H14.7301C14.8126 7.5814 14.8954 7.60166 14.9646 7.64721C15.0338 7.69275 15.0852 7.76079 15.1101 7.83983C15.1901 8.02983 15.2701 8.21978 15.3601 8.40978H15.6402C15.7958 8.41296 15.9477 8.45786 16.0801 8.53978C16.1544 8.59673 16.2075 8.67686 16.2311 8.76744C16.2546 8.85803 16.2472 8.95387 16.2101 9.03978C16.185 9.13086 16.132 9.21176 16.0584 9.27098C15.9848 9.33021 15.8945 9.36479 15.8002 9.3698V9.45983L16.0602 10.0498C16.0792 10.1088 16.113 10.1619 16.1586 10.204C16.2041 10.246 16.2598 10.2755 16.3201 10.2898C16.3814 10.3048 16.4457 10.3025 16.5058 10.2831C16.5658 10.2636 16.6193 10.2279 16.6602 10.1798C16.6965 10.1212 16.7157 10.0537 16.7157 9.98479C16.7157 9.91589 16.6965 9.84834 16.6602 9.78978L15.8501 7.9898L15.7802 7.8098L15.6901 7.59978H17.1001C17.2192 7.61044 17.3316 7.6596 17.4202 7.7398L18.0901 8.39983L18.6201 8.91979C18.7962 9.10154 19.017 9.23372 19.2604 9.30297C19.5038 9.37222 19.7611 9.37611 20.0065 9.31426C20.2518 9.25241 20.4765 9.12701 20.658 8.95067C20.8394 8.77433 20.9713 8.55329 21.0402 8.3098C21.1197 8.04966 21.1233 7.77227 21.0507 7.51012C20.9781 7.24798 20.8322 7.01197 20.6301 6.82982L20.0901 6.28978C19.7401 5.94978 19.3802 5.58979 19.0302 5.22979C18.8685 5.05266 18.6703 4.91267 18.4494 4.81945C18.2284 4.72623 17.9898 4.68201 17.7501 4.68981H9.8301C9.78722 4.6987 9.74297 4.6987 9.70009 4.68981C9.70009 4.68981 9.5602 4.60983 9.5602 4.52983C9.5602 4.25983 9.5602 3.98982 9.5602 3.69982V3.38982H10.6802C10.7265 3.39393 10.7731 3.3885 10.8172 3.37389C10.8613 3.35928 10.9019 3.33578 10.9365 3.30486C10.9712 3.27394 10.9992 3.23623 11.0187 3.19408C11.0382 3.15193 11.049 3.10625 11.0502 3.0598C11.0502 2.8498 10.9301 2.71982 10.7001 2.69982H9.0602C7.7802 2.69982 6.46016 2.69982 5.15016 2.69982C4.92816 2.72376 4.70368 2.6914 4.49745 2.60576C4.29123 2.52013 4.10985 2.38399 3.97011 2.20983C3.70881 1.91188 3.4318 1.6281 3.14015 1.35979L2.82009 1.03978C2.56316 0.79582 2.22437 0.656762 1.87013 0.64983V0.64983ZM15.4102 8.58983L15.7101 9.26982H15.7802C15.846 9.26487 15.9088 9.24027 15.9605 9.19927C16.0122 9.15827 16.0503 9.10272 16.0701 9.03978C16.0962 8.98136 16.1016 8.91579 16.0852 8.85393C16.0688 8.79207 16.0317 8.73767 15.9801 8.69982C15.8749 8.63354 15.7544 8.59566 15.6301 8.58983H15.4102ZM8.66017 8.43981H15.1901C15.1101 8.26981 15.0401 8.0998 14.9701 7.9298C14.9559 7.87674 14.9225 7.83093 14.8762 7.80132C14.83 7.77171 14.7742 7.76047 14.7201 7.76983V7.76983C12.0601 7.76983 9.04012 7.76983 6.11012 7.76983C5.80012 7.76983 5.68013 7.84983 5.62013 8.08983C5.58558 8.19663 5.54209 8.30033 5.49013 8.39983H8.69008L8.66017 8.43981ZM19.6602 8.70983C19.5502 8.70656 19.442 8.68093 19.3423 8.63451C19.2426 8.58809 19.1534 8.52183 19.0801 8.43981L18.6901 8.04979C18.4001 7.75979 18.0902 7.45983 17.8002 7.14983C17.7375 7.08348 17.6613 7.03125 17.5768 6.99675C17.4923 6.96226 17.4014 6.94628 17.3102 6.94982H6.07009C5.9147 6.95734 5.75956 6.93181 5.61476 6.87493C5.46997 6.81804 5.33884 6.73108 5.23012 6.6198C3.84012 5.2198 2.56019 3.92981 1.30019 2.68981C1.19305 2.58975 1.11499 2.46247 1.07448 2.32158C1.03397 2.1807 1.03244 2.0315 1.07009 1.88982C1.10097 1.75955 1.16814 1.64064 1.26369 1.54686C1.35924 1.45309 1.4793 1.38824 1.61012 1.35979H1.74013C1.85544 1.35689 1.96998 1.37963 2.07546 1.42632C2.18094 1.47301 2.27473 1.5425 2.35011 1.62981L4.35011 3.62981L4.86012 4.13982C5.24012 4.51982 5.63015 4.89978 6.01015 5.28978C6.06152 5.34349 6.12377 5.3856 6.19277 5.4132C6.26177 5.4408 6.33594 5.45328 6.41017 5.44982H17.7401C17.888 5.44291 18.0356 5.46892 18.1723 5.52599C18.3089 5.58306 18.4311 5.66978 18.5302 5.77984L19.7101 6.95983L20.1602 7.41979C20.2654 7.51679 20.3411 7.64154 20.3786 7.77965C20.416 7.91777 20.4136 8.06368 20.3718 8.20055C20.3301 8.33742 20.2504 8.4597 20.1422 8.55333C20.034 8.64697 19.9016 8.7081 19.7601 8.72979L19.6602 8.70983ZM17.3102 6.79979C17.4208 6.79599 17.5309 6.81643 17.6328 6.85961C17.7347 6.90279 17.826 6.96767 17.9002 7.04979L18.7902 7.94982L19.1802 8.33983C19.2506 8.42503 19.3421 8.49018 19.4457 8.5288C19.5493 8.56741 19.6612 8.57811 19.7702 8.5598C19.8829 8.54262 19.9886 8.49415 20.0752 8.41991C20.1618 8.34567 20.2259 8.24864 20.2601 8.13982C20.2973 8.0266 20.3009 7.90506 20.2708 7.78978C20.2406 7.67451 20.1779 7.57035 20.0901 7.4898L19.6301 7.03978C19.2501 6.64978 18.8401 6.24978 18.4601 5.84978C18.3722 5.75528 18.2653 5.6806 18.1464 5.6306C18.0274 5.58061 17.8992 5.55646 17.7702 5.5598H6.44008C6.34671 5.56158 6.25409 5.54384 6.16799 5.50768C6.08188 5.47151 6.00418 5.4177 5.94008 5.34978L4.79018 4.19982L4.28017 3.68981L2.28017 1.68981C2.21676 1.61698 2.13834 1.55873 2.05031 1.51903C1.96228 1.47933 1.86672 1.45915 1.77016 1.45983V1.45983H1.67018C1.56339 1.4819 1.46509 1.53412 1.3871 1.61034C1.30911 1.68656 1.25465 1.78357 1.23012 1.88982C1.19929 2.00674 1.2007 2.12983 1.23415 2.24602C1.2676 2.36222 1.33191 2.46716 1.42018 2.54979C2.68018 3.78979 3.97011 5.07978 5.35011 6.46978C5.44624 6.56793 5.56154 6.64527 5.68886 6.69689C5.81618 6.7485 5.95277 6.77333 6.09011 6.76983H17.3301L17.3102 6.79979ZM7.66017 4.7398H6.66017C6.54107 4.73767 6.42695 4.69133 6.34011 4.60979L5.5602 3.83983L5.16017 3.43981H8.86012V4.72979H7.64015L7.66017 4.7398ZM5.53017 3.57982L5.68019 3.72979C5.95019 3.98979 6.2001 4.2498 6.4601 4.4898C6.52137 4.54501 6.5983 4.57998 6.68019 4.58983H8.68019V3.58983L5.53017 3.57982Z" fill="#5B5755"/>
</svg>
