<svg width="15" height="15" viewBox="0 0 15 15" fill="none" xmlns="http://www.w3.org/2000/svg">
<path d="M12.2898 0.709717C12.5357 0.766676 12.7765 0.843578 13.0098 0.939697C13.4159 1.13074 13.7509 1.44568 13.9665 1.83923C14.1822 2.23278 14.2674 2.68464 14.2099 3.1297C14.1717 3.48071 14.0485 3.81708 13.8509 4.10968C13.6533 4.40228 13.3872 4.64227 13.0759 4.80878C12.7645 4.97529 12.4173 5.06334 12.0642 5.06525C11.7112 5.06715 11.3629 4.98285 11.0498 4.8197C11.0358 4.80456 11.0188 4.79244 10.9998 4.78418C10.9809 4.77592 10.9605 4.77167 10.9398 4.77167C10.9192 4.77167 10.8988 4.77592 10.8798 4.78418C10.8609 4.79244 10.8439 4.80456 10.8299 4.8197C9.75986 6.0497 8.67981 7.26969 7.59981 8.49969C7.55069 8.56781 7.4861 8.62325 7.41134 8.6615C7.33658 8.69975 7.2538 8.71968 7.16982 8.71967V13.1597H8.62984C8.68352 13.1555 8.73745 13.1626 8.78829 13.1803C8.83913 13.198 8.88574 13.2261 8.92519 13.2628C8.96465 13.2994 8.99609 13.3438 9.01754 13.3932C9.03899 13.4426 9.04999 13.4958 9.04983 13.5497C9.0503 13.6041 9.03907 13.6579 9.01693 13.7076C8.99478 13.7573 8.96224 13.8017 8.92147 13.8378C8.8807 13.8738 8.8327 13.9006 8.78066 13.9165C8.72862 13.9324 8.67377 13.9368 8.61983 13.9297H4.93984C4.88591 13.9368 4.83105 13.9324 4.77901 13.9165C4.72697 13.9006 4.67897 13.8738 4.63821 13.8378C4.59744 13.8017 4.56489 13.7573 4.54275 13.7076C4.5206 13.6579 4.50937 13.6041 4.50985 13.5497C4.50956 13.4949 4.52082 13.4408 4.54287 13.3906C4.56492 13.3405 4.59727 13.2955 4.63784 13.2587C4.6784 13.2219 4.72625 13.1941 4.77828 13.1771C4.83032 13.16 4.88537 13.1541 4.93984 13.1597H6.37984V8.72968C6.16984 8.72968 6.03981 8.58971 5.90981 8.44971L1.25985 3.14972C1.19752 3.09507 1.15423 3.02196 1.13625 2.94104C1.11827 2.86012 1.1265 2.77561 1.15981 2.69971C1.19689 2.6222 1.25742 2.5583 1.33279 2.51703C1.40815 2.47576 1.49458 2.45916 1.57986 2.46967H9.78982C9.85982 2.46967 9.90983 2.46969 9.92983 2.36969C10.028 1.93785 10.256 1.54639 10.5831 1.24786C10.9102 0.949342 11.3209 0.758075 11.7598 0.699707H11.8198L12.2898 0.709717ZM3.99984 5.0697L4.15981 5.2597C4.87981 6.0697 5.59984 6.87972 6.30984 7.70972C6.37802 7.80828 6.47173 7.8864 6.58095 7.93573C6.69018 7.98506 6.8108 8.00371 6.92983 7.98969C7.04304 7.97924 7.14909 7.92973 7.22982 7.84967C7.90982 7.05967 8.59982 6.27969 9.28982 5.49969L9.65981 5.0697H3.99984ZM2.43984 3.27972L3.24984 4.19971C3.29866 4.21506 3.35104 4.21506 3.39986 4.19971H10.2198C10.2543 4.19742 10.288 4.18824 10.3189 4.17279C10.3498 4.15734 10.3773 4.13589 10.3999 4.10968C10.6599 3.82968 10.9098 3.5497 11.1598 3.2597V3.1897L2.43984 3.27972ZM11.5098 4.14972C11.7642 4.27276 12.0502 4.31473 12.3292 4.27002C12.6082 4.22531 12.8667 4.09608 13.0698 3.89972C13.226 3.75149 13.3458 3.56922 13.4201 3.36713C13.4943 3.16503 13.5209 2.9485 13.4979 2.73444C13.4748 2.52037 13.4028 2.31453 13.2872 2.13287C13.1716 1.95122 13.0157 1.79866 12.8316 1.68707C12.6474 1.57548 12.4401 1.50783 12.2255 1.48944C12.011 1.47105 11.7952 1.50237 11.5947 1.58099C11.3943 1.65961 11.2147 1.78342 11.0699 1.94275C10.9251 2.10208 10.819 2.29268 10.7598 2.49969H11.6198C11.7997 2.48971 11.98 2.48971 12.1598 2.49969C12.226 2.50657 12.2891 2.53114 12.3425 2.57086C12.3959 2.61058 12.4376 2.66399 12.4632 2.7254C12.4887 2.78682 12.4973 2.85399 12.4879 2.91986C12.4785 2.98573 12.4515 3.04784 12.4098 3.09967C12.4098 3.15967 12.3199 3.2097 12.2799 3.2597L11.5098 4.14972Z" fill="#5B5755"/>
<path d="M7.32062 14.0998H4.94061C4.86559 14.1102 4.7892 14.1044 4.71661 14.0828C4.64403 14.0611 4.57694 14.0242 4.51984 13.9744C4.46273 13.9247 4.41693 13.8633 4.38556 13.7944C4.35419 13.7254 4.33795 13.6506 4.33795 13.5748C4.33795 13.4991 4.35419 13.4242 4.38556 13.3553C4.41693 13.2864 4.46273 13.2249 4.51984 13.1752C4.57694 13.1254 4.64403 13.0885 4.71661 13.0669C4.7892 13.0453 4.86559 13.0394 4.94061 13.0498H6.26062V8.87982C6.08392 8.82755 5.92931 8.71862 5.82062 8.56982L1.16058 3.26984C1.08185 3.19609 1.02803 3.09967 1.00653 2.99396C0.985031 2.88825 0.996922 2.77845 1.04059 2.67981C1.0878 2.57605 1.16612 2.48952 1.26465 2.43219C1.36318 2.37486 1.4771 2.34957 1.59064 2.3598H9.81061C9.916 1.90268 10.1581 1.48848 10.5046 1.1723C10.8512 0.856122 11.2858 0.65299 11.7506 0.589844H11.8306H12.3406L12.5606 0.65979C12.7381 0.702802 12.912 0.759687 13.0806 0.829834C13.5232 1.04534 13.8854 1.39661 14.1143 1.8324C14.3433 2.26819 14.427 2.76572 14.3533 3.25244C14.2796 3.73916 14.0524 4.18958 13.7047 4.53809C13.3571 4.88659 12.9071 5.11496 12.4206 5.18982C11.9348 5.27212 11.4355 5.19126 11.0006 4.95984L9.2406 6.95984L7.78064 8.61981C7.67867 8.74717 7.5384 8.83834 7.38062 8.87982V13.0498H8.70062C8.77271 13.0457 8.84485 13.0564 8.91266 13.0812C8.98047 13.106 9.04247 13.1444 9.09491 13.194C9.14735 13.2437 9.1891 13.3035 9.21759 13.3698C9.24608 13.4362 9.26074 13.5076 9.26062 13.5798C9.26096 13.6525 9.24606 13.7245 9.21686 13.7911C9.18766 13.8577 9.14478 13.9174 9.09107 13.9664C9.03735 14.0154 8.97395 14.0526 8.90497 14.0756C8.83599 14.0985 8.76298 14.1068 8.69061 14.0998H7.32062ZM5.4906 13.3298H4.94061C4.76061 13.3298 4.65064 13.4198 4.65064 13.5798C4.65064 13.7398 4.76061 13.8198 4.94061 13.8198H8.62061C8.80061 13.8198 8.91058 13.7198 8.91058 13.5698C8.91084 13.5343 8.90356 13.4991 8.88916 13.4667C8.87476 13.4342 8.85364 13.4052 8.82715 13.3815C8.80066 13.3579 8.76942 13.3401 8.73554 13.3295C8.70165 13.3188 8.66587 13.3156 8.63062 13.3198H7.00061V8.59979H7.15064C7.21379 8.5946 7.27503 8.57587 7.33026 8.5448C7.38549 8.51373 7.43335 8.47108 7.47058 8.4198C7.95058 7.8598 8.4706 7.30983 8.9306 6.75983L10.7006 4.75983C10.7216 4.7296 10.7483 4.70378 10.7793 4.6839C10.8103 4.66402 10.8449 4.65048 10.8811 4.64398C10.9173 4.63748 10.9545 4.63819 10.9904 4.64606C11.0264 4.65392 11.0604 4.66878 11.0906 4.68982C11.4718 4.89855 11.9122 4.97256 12.3406 4.89984C12.7858 4.85878 13.2044 4.66971 13.5296 4.36285C13.8548 4.056 14.0677 3.64905 14.1345 3.20697C14.2013 2.76489 14.118 2.31321 13.898 1.92401C13.6779 1.53481 13.3338 1.23053 12.9206 1.05981C12.7683 0.994538 12.6112 0.941075 12.4506 0.899841L12.2406 0.839844H11.8206H11.7506C11.3377 0.891134 10.951 1.0699 10.6445 1.35132C10.338 1.63273 10.1269 2.00273 10.0406 2.40979C10.0307 2.47447 9.99583 2.5327 9.94348 2.57196C9.89113 2.61122 9.82549 2.62842 9.76062 2.61981H1.5506C1.3506 2.61981 1.29061 2.69985 1.25061 2.77985C1.21061 2.85985 1.25063 2.93983 1.33063 3.07983L5.9906 8.37982C6.1106 8.51982 6.20063 8.6098 6.33063 8.6098H6.4906V13.3298H5.4906ZM6.79059 8.12982C6.66554 8.12866 6.54254 8.0982 6.4314 8.04089C6.32025 7.98358 6.2241 7.901 6.15064 7.7998C5.64064 7.1898 5.15063 6.59982 4.58063 5.99982L3.65064 4.93982H9.91058L8.84064 6.15979L7.28064 7.93982C7.23332 7.99463 7.17506 8.03895 7.10962 8.06995C7.04418 8.10094 6.97302 8.11792 6.90064 8.11981L6.79059 8.12982ZM4.25061 5.20984L4.79059 5.81982C5.32059 6.41982 5.8506 7.00981 6.3606 7.61981C6.41726 7.70027 6.49446 7.76405 6.58417 7.8045C6.67387 7.84496 6.7728 7.86058 6.87061 7.84979C6.90859 7.85098 6.94636 7.84354 6.98102 7.82794C7.01567 7.81235 7.04631 7.78904 7.07062 7.75983L8.64063 5.96979L9.31061 5.20984H4.25061ZM5.9306 4.42981H3.37061C3.32417 4.43231 3.27773 4.42468 3.23456 4.40741C3.19138 4.39014 3.15251 4.36367 3.12061 4.32983L2.48059 3.6098L2.27063 3.34979L2.19061 3.15979H2.39063H11.3906L11.2506 3.36981L11.1906 3.45984L11.0506 3.62982L10.4306 4.31982C10.3952 4.35941 10.3522 4.39134 10.304 4.4137C10.2559 4.43605 10.2037 4.44836 10.1506 4.44983L5.9306 4.42981ZM2.67059 3.42981L3.3006 4.14984H10.1706H10.2506L10.8606 3.45984H2.65064L2.67059 3.42981ZM12.0306 4.42981C11.8069 4.43378 11.5861 4.37861 11.3906 4.26984L11.2406 4.17981L12.1506 3.17981C12.1836 3.14566 12.2137 3.10888 12.2406 3.06982C12.2616 3.02972 12.2726 2.9851 12.2726 2.93982C12.2726 2.89454 12.2616 2.84992 12.2406 2.80981C12.2231 2.77336 12.1964 2.74218 12.163 2.71936C12.1297 2.69654 12.0909 2.68287 12.0506 2.67981C11.9244 2.66471 11.7968 2.66471 11.6706 2.67981H10.5006V2.50983C10.5793 2.21393 10.7455 1.94869 10.9775 1.74884C11.2094 1.54899 11.4963 1.42387 11.8006 1.38983C12.1238 1.35073 12.4512 1.41505 12.7355 1.57361C13.0199 1.73217 13.2467 1.97681 13.3834 2.27234C13.52 2.56787 13.5595 2.89908 13.4961 3.21844C13.4327 3.53781 13.2698 3.82886 13.0306 4.0498C12.7407 4.29033 12.3773 4.42443 12.0006 4.42981H12.0306ZM11.6806 4.09979C11.9128 4.17167 12.1608 4.17542 12.3951 4.11053C12.6294 4.04564 12.8401 3.91488 13.0023 3.73376C13.1644 3.55265 13.2712 3.32881 13.3099 3.08881C13.3486 2.84881 13.3176 2.60273 13.2206 2.37982C13.1112 2.13112 12.9249 1.92406 12.6891 1.78906C12.4534 1.65407 12.1804 1.59826 11.9106 1.62982C11.6961 1.65788 11.4921 1.73944 11.3173 1.867C11.1426 1.99457 11.0027 2.16403 10.9106 2.3598H11.7106C11.8538 2.34985 11.9975 2.34985 12.1406 2.3598C12.227 2.36837 12.3095 2.39973 12.3798 2.45068C12.4501 2.50164 12.5056 2.5704 12.5406 2.64984C12.5755 2.73449 12.5883 2.82664 12.5778 2.9176C12.5673 3.00857 12.5339 3.09532 12.4806 3.1698C12.4495 3.22062 12.4126 3.26762 12.3706 3.30981L11.6806 4.09979Z" fill="#5B5755"/>
</svg>
