<svg width="17" height="19" viewBox="0 0 17 19" fill="none" xmlns="http://www.w3.org/2000/svg">
<path d="M13.8006 16.4098V16.5599C13.8006 17.1699 13.8006 17.7898 13.8006 18.4098C13.8051 18.4648 13.7977 18.5202 13.7787 18.572C13.7597 18.6238 13.7296 18.6708 13.6906 18.7098C13.6516 18.7488 13.6045 18.7789 13.5527 18.7979C13.5009 18.8169 13.4456 18.8244 13.3906 18.8199C13.32 18.8171 13.2523 18.7912 13.1981 18.746C13.1438 18.7007 13.106 18.6388 13.0906 18.5699C13.0814 18.4834 13.0814 18.3963 13.0906 18.3099V16.4198H12.2106V18.4198C12.2171 18.4726 12.2115 18.5262 12.1942 18.5765C12.1768 18.6267 12.1483 18.6723 12.1107 18.7099C12.0731 18.7475 12.0274 18.7761 11.9772 18.7934C11.9269 18.8107 11.8734 18.8163 11.8206 18.8099C11.7711 18.8086 11.7224 18.7974 11.6774 18.777C11.6323 18.7566 11.5917 18.7273 11.5582 18.691C11.5246 18.6546 11.4987 18.6118 11.4819 18.5653C11.4652 18.5187 11.4579 18.4693 11.4606 18.4198V16.4198H11.1406C11.0852 16.4262 11.0291 16.4201 10.9764 16.4017C10.9238 16.3834 10.876 16.3534 10.8366 16.3139C10.7971 16.2745 10.7671 16.2266 10.7488 16.174C10.7304 16.1213 10.7242 16.0653 10.7306 16.0099V13.0099C10.7306 12.9199 10.7306 12.8798 10.6206 12.8498C9.92441 12.6378 9.27347 12.2987 8.70063 11.8498C8.6585 11.8354 8.61275 11.8354 8.57062 11.8498C8.37922 11.8814 8.18275 11.8566 8.00519 11.7785C7.82764 11.7004 7.67667 11.5723 7.57062 11.4098L6.43061 9.82987C6.42719 9.80667 6.42719 9.78307 6.43061 9.75987V9.83988C6.43061 12.4132 6.43061 14.9832 6.43061 17.5498C6.42823 17.8216 6.34395 18.0862 6.18872 18.3092C6.0335 18.5323 5.81458 18.7032 5.56061 18.7998C5.33076 18.8945 5.07858 18.9212 4.83399 18.8769C4.5894 18.8326 4.36266 18.7191 4.18061 18.5498L4.09064 18.4698L3.77063 18.6999C3.56531 18.8127 3.33416 18.8701 3.09992 18.8665C2.86568 18.8629 2.6364 18.7984 2.43463 18.6794C2.23287 18.5603 2.06552 18.3908 1.9491 18.1875C1.83268 17.9842 1.77119 17.7541 1.77063 17.5199V11.9999H1.64063C1.49186 12.0273 1.33891 12.0223 1.19226 11.9851C1.04562 11.948 0.908715 11.8796 0.790958 11.7846C0.673201 11.6897 0.577387 11.5704 0.510013 11.4349C0.44264 11.2995 0.405331 11.1511 0.400638 10.9999C0.400638 10.9999 0.400638 10.9199 0.400638 10.8799V7.20988C0.396368 6.93854 0.44733 6.66913 0.55048 6.41813C0.65363 6.16713 0.806786 5.93978 1.00061 5.74986C1.2024 5.53698 1.44851 5.3711 1.72156 5.26396C1.99461 5.15681 2.28792 5.11102 2.58063 5.12986H5.00061C5.36312 5.11766 5.72212 5.20426 6.03919 5.38041C6.35626 5.55656 6.61945 5.81562 6.8006 6.12986C7.6206 7.48986 8.42059 8.85983 9.23059 10.2198C9.33604 10.382 9.39215 10.5714 9.39215 10.7649C9.39215 10.9583 9.33604 11.1476 9.23059 11.3099C9.45059 11.4499 9.66063 11.5998 9.89063 11.7298C10.8207 12.2457 11.8779 12.4875 12.9398 12.4273C14.0016 12.3672 15.0248 12.0075 15.8906 11.3899C16.0295 11.2908 16.16 11.1804 16.2806 11.0599C16.3148 11.0194 16.3569 10.9866 16.4045 10.9634C16.452 10.9402 16.5039 10.9271 16.5568 10.9251C16.6096 10.9231 16.6624 10.9322 16.7116 10.9518C16.7607 10.9713 16.8052 11.0009 16.8423 11.0387C16.8794 11.0764 16.9081 11.1215 16.9268 11.1711C16.9454 11.2206 16.9535 11.2734 16.9505 11.3263C16.9475 11.3791 16.9335 11.4307 16.9094 11.4778C16.8853 11.5249 16.8517 11.5665 16.8106 11.5998C16.3333 12.0504 15.7775 12.4097 15.1706 12.6598L14.6706 12.8498C14.5906 12.8498 14.5706 12.9099 14.5706 12.9999V15.9999C14.577 16.0566 14.5705 16.114 14.5516 16.1678C14.5328 16.2217 14.502 16.2706 14.4617 16.311C14.4213 16.3513 14.3724 16.382 14.3185 16.4009C14.2647 16.4197 14.2073 16.4262 14.1506 16.4198H13.8306L13.8006 16.4098ZM5.6106 12.2499V8.58988C5.60511 8.50669 5.62646 8.42393 5.67145 8.35374C5.71644 8.28355 5.78272 8.22962 5.8606 8.19987C5.94097 8.16969 6.02949 8.16925 6.11017 8.19859C6.19085 8.22793 6.25839 8.28509 6.3006 8.35984L7.45063 9.93986L8.18061 10.9399C8.19777 10.9688 8.22083 10.9938 8.24829 11.0133C8.27576 11.0328 8.30702 11.0462 8.34003 11.0528C8.37304 11.0594 8.40705 11.059 8.43988 11.0516C8.47272 11.0442 8.50366 11.03 8.53064 11.0099C8.5596 10.9927 8.5846 10.9696 8.60407 10.9422C8.62353 10.9147 8.63702 10.8835 8.64362 10.8504C8.65022 10.8174 8.64981 10.7834 8.6424 10.7506C8.63499 10.7178 8.62072 10.6868 8.60059 10.6598C8.58193 10.6275 8.56525 10.5942 8.5506 10.5599L6.18061 6.55985C6.06422 6.34269 5.88896 6.16274 5.67493 6.04069C5.4609 5.91864 5.21675 5.85944 4.97058 5.86985H2.41059H2.1106C1.80006 5.92711 1.52036 6.09378 1.32221 6.33964C1.12406 6.5855 1.02063 6.89427 1.03064 7.20988C1.03064 8.42988 1.03064 9.63983 1.03064 10.8498C1.02573 10.8897 1.02573 10.93 1.03064 10.9698C1.04102 11.0168 1.06185 11.061 1.09162 11.0988C1.12139 11.1366 1.15933 11.1672 1.20258 11.1884C1.24583 11.2095 1.29329 11.2207 1.34143 11.2209C1.38958 11.2212 1.43712 11.2105 1.48059 11.1899C1.63059 11.1099 1.65064 10.9799 1.65064 10.8199V7.58988C1.64568 7.54669 1.64568 7.50307 1.65064 7.45988C1.65487 7.39238 1.68033 7.32796 1.72345 7.27586C1.76657 7.22376 1.82511 7.18661 1.89063 7.16984C1.95234 7.14376 2.02036 7.13651 2.08619 7.14897C2.15201 7.16142 2.21271 7.19302 2.26062 7.23985C2.30621 7.28115 2.34165 7.33245 2.3642 7.38969C2.38675 7.44692 2.39579 7.50857 2.39063 7.56986V12.2298L5.6106 12.2499ZM4.39063 13.0099C4.39235 13.0298 4.39235 13.0499 4.39063 13.0699V17.4798C4.39243 17.6168 4.44101 17.749 4.52832 17.8545C4.61564 17.96 4.73642 18.0325 4.87061 18.0599C4.96322 18.0819 5.05972 18.0819 5.15235 18.06C5.24498 18.038 5.33117 17.9947 5.40406 17.9335C5.47695 17.8722 5.53448 17.7948 5.57209 17.7074C5.60969 17.6199 5.62631 17.5249 5.62061 17.4298V13.1199C5.62555 13.0834 5.62555 13.0464 5.62061 13.0099H4.39063ZM2.39063 13.0099V15.5299C2.39063 16.1699 2.39063 16.8099 2.39063 17.4499C2.38813 17.5432 2.40706 17.6359 2.44605 17.7208C2.48504 17.8057 2.54302 17.8805 2.61548 17.9394C2.68795 17.9984 2.77297 18.0399 2.86402 18.0608C2.95506 18.0816 3.04972 18.0813 3.14063 18.0599C3.28156 18.0273 3.40667 17.9466 3.49433 17.8315C3.58198 17.7165 3.62665 17.5744 3.62061 17.4298V13.1299C3.62529 13.1101 3.62529 13.0896 3.62061 13.0699C3.62061 13.0699 3.62061 13.0099 3.56061 13.0099H2.39063ZM13.7606 15.6598V13.0899C12.9894 13.2201 12.2018 13.2201 11.4306 13.0899V15.6598H13.7606Z" fill="#5B5755"/>
<path d="M5.0002 18.8698C4.66847 18.8678 4.35005 18.739 4.11019 18.5098H4.05019H3.97017L3.76021 18.6698C3.54994 18.7948 3.30983 18.8608 3.0652 18.8608C2.82058 18.8608 2.58047 18.7948 2.3702 18.6698C2.14955 18.5472 1.96612 18.3673 1.83937 18.149C1.71263 17.9307 1.64731 17.6822 1.65023 17.4298V12.0298H1.58022C1.42701 12.0586 1.26944 12.0547 1.11782 12.0185C0.966195 11.9824 0.823927 11.9146 0.700213 11.8198C0.579819 11.7217 0.480527 11.6003 0.408343 11.4628C0.33616 11.3253 0.292597 11.1746 0.28023 11.0198V7.22979C0.271714 6.95105 0.321541 6.67366 0.426593 6.41533C0.531644 6.15701 0.689583 5.92347 0.890216 5.72979C1.08741 5.52692 1.32393 5.36643 1.58528 5.25811C1.84664 5.14978 2.12729 5.0959 2.41017 5.09978H5.0002C5.3668 5.0875 5.72996 5.17383 6.05184 5.34972C6.37372 5.52561 6.64255 5.78462 6.83022 6.09978C7.36022 6.97978 7.83022 7.8698 8.39022 8.7398L9.26021 10.1998C9.35876 10.3664 9.41072 10.5563 9.41072 10.7498C9.41072 10.9433 9.35876 11.1333 9.26021 11.2998L9.4402 11.4098C9.5802 11.5098 9.73021 11.5998 9.88021 11.6898C10.799 12.1944 11.8409 12.4309 12.8875 12.3725C13.934 12.3142 14.9432 11.9633 15.8002 11.3598C15.9335 11.2577 16.0604 11.1475 16.1802 11.0298C16.2202 10.9896 16.2677 10.9577 16.32 10.9359C16.3724 10.9141 16.4285 10.9029 16.4852 10.9029C16.5419 10.9029 16.598 10.9141 16.6503 10.9359C16.7027 10.9577 16.7502 10.9896 16.7902 11.0298C16.8287 11.0676 16.8592 11.1127 16.8798 11.1625C16.9005 11.2124 16.9108 11.2659 16.9102 11.3198C16.9093 11.3798 16.8966 11.439 16.8725 11.4939C16.8485 11.5489 16.8137 11.5985 16.7702 11.6398C16.2911 12.0954 15.7316 12.4582 15.1202 12.7098L14.6202 12.8998C14.6073 12.9009 14.5949 12.9048 14.5836 12.9111C14.5724 12.9175 14.5627 12.9261 14.5551 12.9365C14.5475 12.9469 14.5423 12.9589 14.5397 12.9715C14.5371 12.9842 14.5373 12.9973 14.5402 13.0098V16.0098C14.5484 16.0722 14.5421 16.1356 14.5219 16.1951C14.5017 16.2547 14.4681 16.3087 14.4236 16.3532C14.3791 16.3977 14.3251 16.4313 14.2655 16.4515C14.206 16.4717 14.1426 16.478 14.0802 16.4698H13.8102V18.4698C13.8115 18.533 13.7997 18.5959 13.7757 18.6544C13.7516 18.7129 13.7156 18.7658 13.6702 18.8098C13.5875 18.8828 13.4804 18.922 13.3702 18.9198C13.2919 18.9128 13.2176 18.8824 13.1569 18.8324C13.0962 18.7824 13.0521 18.7153 13.0302 18.6398C13.0204 18.5501 13.0204 18.4595 13.0302 18.3698V16.5198H12.2402V18.5198C12.2433 18.5801 12.2343 18.6403 12.2137 18.697C12.1931 18.7537 12.1613 18.8056 12.1202 18.8498C12.0355 18.9261 11.924 18.9657 11.8102 18.9598C11.7546 18.9586 11.6998 18.9461 11.6492 18.923C11.5986 18.9 11.5531 18.8668 11.5157 18.8257C11.4783 18.7845 11.4497 18.7362 11.4315 18.6836C11.4134 18.631 11.4061 18.5753 11.4102 18.5198V16.5198H11.1302C11.0688 16.5277 11.0064 16.5216 10.9476 16.5019C10.8889 16.4823 10.8355 16.4495 10.7912 16.4062C10.747 16.3629 10.7131 16.3101 10.6921 16.2519C10.6711 16.1936 10.6636 16.1314 10.6702 16.0698V13.0698C10.6702 12.9898 10.6702 12.9698 10.6002 12.9498C9.89153 12.7241 9.2329 12.3643 8.66017 11.8898C8.62782 11.8784 8.59255 11.8784 8.5602 11.8898C8.36641 11.911 8.17052 11.8783 7.9941 11.7954C7.81767 11.7125 7.66755 11.5825 7.5602 11.4198L6.8702 10.4198L6.45021 9.83983V17.4998C6.44881 17.7794 6.36314 18.0521 6.20436 18.2822C6.04559 18.5124 5.82108 18.6892 5.5602 18.7898C5.38002 18.8506 5.1902 18.8777 5.0002 18.8698ZM1.73018 11.8698V11.9998C1.7357 12.0228 1.7357 12.0468 1.73018 12.0698V17.4698C1.7282 17.7053 1.78931 17.9371 1.90712 18.1411C2.02494 18.3451 2.1952 18.5138 2.40023 18.6298C2.59751 18.7449 2.82179 18.8055 3.05019 18.8055C3.27859 18.8055 3.50292 18.7449 3.70021 18.6298L3.91017 18.4798L4.01021 18.4098L4.13021 18.5198C4.3088 18.6812 4.52956 18.7885 4.7668 18.8292C5.00405 18.8699 5.24798 18.8424 5.47017 18.7498C5.71192 18.6546 5.91991 18.4897 6.06771 18.2761C6.2155 18.0624 6.29643 17.8096 6.30019 17.5498C6.30019 14.9798 6.30019 12.4098 6.30019 9.83983V9.72979L6.36019 9.8698L6.8102 10.4898L7.51021 11.4898C7.60812 11.6446 7.74954 11.767 7.91677 11.8417C8.08399 11.9164 8.26958 11.9401 8.45021 11.9098C8.50561 11.8928 8.5648 11.8928 8.6202 11.9098C9.18406 12.3611 9.82898 12.7005 10.5202 12.9098C10.5671 12.9195 10.6085 12.9465 10.6363 12.9854C10.6641 13.0243 10.6762 13.0723 10.6702 13.1198C10.6702 14.1198 10.6702 15.1198 10.6702 16.1198C10.6653 16.1692 10.6716 16.219 10.6886 16.2656C10.7056 16.3122 10.7329 16.3544 10.7685 16.389C10.804 16.4236 10.8469 16.4497 10.8939 16.4654C10.941 16.4812 10.991 16.486 11.0402 16.4798H11.4102V18.5398C11.4075 18.5831 11.4134 18.6266 11.4275 18.6677C11.4416 18.7088 11.4637 18.7466 11.4925 18.7792C11.5213 18.8117 11.5563 18.8382 11.5954 18.8572C11.6344 18.8762 11.6768 18.8873 11.7202 18.8898C11.7658 18.893 11.8116 18.8866 11.8546 18.8711C11.8977 18.8556 11.937 18.8313 11.9702 18.7998C12.0334 18.7285 12.0658 18.6349 12.0602 18.5398V16.5398H13.0602V17.2298C13.0602 17.6498 13.0602 18.0598 13.0602 18.4798C13.0507 18.5628 13.0507 18.6467 13.0602 18.7298C13.0766 18.7873 13.1103 18.8384 13.1569 18.876C13.2034 18.9136 13.2605 18.9359 13.3202 18.9398C13.3674 18.9431 13.4147 18.9369 13.4594 18.9214C13.5041 18.906 13.5452 18.8816 13.5802 18.8498C13.6169 18.8153 13.6456 18.7734 13.6646 18.7268C13.6836 18.6802 13.6924 18.6301 13.6902 18.5798V16.5798H14.0502C14.1003 16.5864 14.1513 16.5813 14.1992 16.5651C14.2471 16.5488 14.2906 16.5217 14.3263 16.486C14.3621 16.4502 14.3891 16.4067 14.4054 16.3588C14.4217 16.3109 14.4267 16.26 14.4202 16.2098V13.2098C14.4163 13.1654 14.4282 13.1209 14.4538 13.0843C14.4794 13.0478 14.5171 13.0214 14.5602 13.0098C14.7302 12.9598 14.9002 12.8898 15.0602 12.8298C15.6578 12.5791 16.2037 12.2197 16.6702 11.7698C16.7071 11.7394 16.737 11.7012 16.7577 11.658C16.7784 11.6148 16.7895 11.5677 16.7902 11.5198C16.787 11.4551 16.7649 11.3928 16.7266 11.3406C16.6883 11.2884 16.6354 11.2486 16.5747 11.2262C16.5139 11.2039 16.4479 11.1999 16.3848 11.2147C16.3218 11.2296 16.2645 11.2626 16.2202 11.3098C16.0902 11.4198 15.9602 11.5398 15.8202 11.6398C14.952 12.2519 13.9295 12.6082 12.8689 12.6683C11.8082 12.7284 10.752 12.4899 9.82021 11.9798L9.3702 11.6998L9.15023 11.5598C9.23799 11.4078 9.2842 11.2353 9.2842 11.0598C9.2842 10.8843 9.23799 10.7118 9.15023 10.5598L8.29018 9.09978C7.77018 8.22978 7.29017 7.33983 6.72017 6.45983C6.54229 6.15165 6.28541 5.89648 5.97603 5.72069C5.66665 5.54491 5.31602 5.45488 4.96022 5.45983H3.11019C2.89019 5.45983 2.65018 5.45983 2.42018 5.45983H2.33022C1.79979 5.45983 1.29105 5.67051 0.915973 6.04558C0.5409 6.42066 0.330218 6.9294 0.330218 7.45983V10.9998C0.339351 11.1423 0.378854 11.2811 0.446124 11.407C0.513394 11.5329 0.606825 11.643 0.720172 11.7298C0.831633 11.8181 0.960698 11.8816 1.09865 11.9161C1.2366 11.9506 1.38032 11.9553 1.52022 11.9298H1.70021L1.73018 11.8698ZM5.04018 18.0998H4.88021C4.7364 18.0681 4.60763 17.9885 4.51497 17.874C4.42232 17.7596 4.37127 17.617 4.3702 17.4698C4.3702 16.2098 4.3702 14.9498 4.3702 13.6898V12.9998H5.67018C5.67507 13.0262 5.67507 13.0534 5.67018 13.0798V17.3898C5.67039 17.4965 5.64723 17.6019 5.60231 17.6987C5.55739 17.7954 5.49179 17.8811 5.41017 17.9498C5.3007 18.0588 5.15452 18.123 5.0002 18.1298L5.04018 18.0998ZM4.46022 13.0198V17.4498C4.46339 17.554 4.49501 17.6552 4.55171 17.7427C4.60842 17.8301 4.68801 17.9003 4.78182 17.9457C4.87563 17.991 4.98008 18.0098 5.08382 17.9999C5.18756 17.9901 5.2866 17.952 5.3702 17.8898C5.44201 17.8299 5.49983 17.755 5.53957 17.6703C5.57931 17.5857 5.59997 17.4934 5.60018 17.3998V13.0898C5.60018 13.0898 5.60018 13.0898 5.60018 13.0198H4.46022ZM3.0002 18.1198C2.85398 18.1253 2.71108 18.0752 2.60018 17.9798C2.51748 17.9188 2.45067 17.8388 2.40541 17.7466C2.36016 17.6543 2.33784 17.5525 2.34023 17.4498V12.9998H3.55019C3.55019 12.9998 3.63023 12.9998 3.65023 13.0898C3.65755 13.1 3.66146 13.1122 3.66146 13.1248C3.66146 13.1374 3.65755 13.1496 3.65023 13.1598V17.4598C3.65895 17.6151 3.61255 17.7684 3.51924 17.8928C3.42594 18.0172 3.29171 18.1047 3.14022 18.1398L3.0002 18.1198ZM2.43019 13.0498V17.4498C2.4294 17.5382 2.44883 17.6255 2.48696 17.7053C2.52508 17.785 2.58093 17.8549 2.65023 17.9098C2.71656 17.9635 2.79427 18.0013 2.87746 18.0204C2.96065 18.0394 3.04711 18.0393 3.13021 18.0198C3.26048 17.9876 3.37553 17.9111 3.45577 17.8035C3.536 17.6959 3.57645 17.5639 3.57021 17.4298V13.0898H2.46022L2.43019 13.0498ZM13.8102 15.6998H11.4002V12.9998H11.4602C12.2282 13.1289 13.0123 13.1289 13.7802 12.9998H13.8302L13.8102 15.6998ZM11.4702 15.6098H13.7202V13.1398C12.975 13.2598 12.2154 13.2598 11.4702 13.1398V15.6098ZM5.63021 12.2998H2.34023V7.58983C2.34622 7.53473 2.33941 7.47897 2.32033 7.42693C2.30125 7.37489 2.27037 7.32795 2.23018 7.28978C2.18556 7.2512 2.13142 7.22532 2.07338 7.21477C2.01534 7.20422 1.95557 7.20938 1.90023 7.22979C1.846 7.24877 1.79789 7.28205 1.76094 7.32604C1.72399 7.37003 1.69954 7.4231 1.6902 7.47979V10.8398C1.70262 10.9204 1.69012 11.0028 1.65438 11.0761C1.61863 11.1494 1.56134 11.21 1.49019 11.2498C1.44176 11.2684 1.38995 11.2766 1.33815 11.2739C1.28635 11.2711 1.23574 11.2575 1.18953 11.2339C1.14333 11.2104 1.10258 11.1773 1.06996 11.137C1.03735 11.0967 1.01358 11.0499 1.0002 10.9998C0.995646 10.9566 0.995646 10.913 1.0002 10.8698V7.22979C0.992372 6.90417 1.1008 6.58644 1.30605 6.33355C1.5113 6.08065 1.79994 5.90912 2.1202 5.84978C2.22322 5.83847 2.32717 5.83847 2.43019 5.84978H5.0002C5.25511 5.84049 5.5075 5.90313 5.72853 6.03045C5.94957 6.15776 6.13033 6.34465 6.2502 6.56981L8.6202 10.5698C8.6202 10.5698 8.6202 10.6198 8.6202 10.6498C8.64258 10.6818 8.65829 10.7179 8.6664 10.756C8.67451 10.7942 8.67484 10.8335 8.66738 10.8718C8.65991 10.9101 8.64479 10.9464 8.62294 10.9787C8.60109 11.0111 8.57293 11.0386 8.54018 11.0598C8.50685 11.082 8.46946 11.0973 8.43013 11.1047C8.39081 11.1122 8.35038 11.1117 8.31124 11.1033C8.2721 11.0949 8.23504 11.0788 8.20223 11.0559C8.16942 11.033 8.14152 11.0037 8.1202 10.9698L7.59023 10.2498L6.2502 8.40978C6.20971 8.34673 6.14953 8.29887 6.079 8.27355C6.00847 8.24823 5.93153 8.24692 5.86019 8.26983C5.78993 8.29244 5.72969 8.3386 5.68959 8.40056C5.6495 8.46253 5.63205 8.53644 5.64022 8.60979V12.3198L5.63021 12.2998ZM2.43019 12.2098H5.54018C5.54018 12.2098 5.54018 12.2098 5.54018 12.1498V8.59978C5.53368 8.50711 5.55808 8.4149 5.60958 8.33757C5.66107 8.26025 5.73677 8.2022 5.82479 8.17247C5.91281 8.14275 6.0082 8.14305 6.09603 8.17333C6.18386 8.20361 6.25919 8.26219 6.3102 8.33983L7.65023 10.1798L8.18019 10.9098C8.19535 10.9341 8.21534 10.9551 8.23891 10.9714C8.26248 10.9877 8.28911 10.999 8.31722 11.0046C8.34532 11.0102 8.37427 11.0101 8.4023 11.0041C8.43033 10.9981 8.45683 10.9864 8.48018 10.9698C8.51747 10.9307 8.53829 10.8788 8.53829 10.8248C8.53829 10.7708 8.51747 10.7189 8.48018 10.6798C8.48208 10.6565 8.48208 10.6331 8.48018 10.6098L6.11019 6.60979C5.99506 6.40182 5.82514 6.22938 5.61885 6.11126C5.41257 5.99313 5.17784 5.93384 4.9402 5.93981H2.38021C2.28388 5.92837 2.18656 5.92837 2.09023 5.93981C1.79946 6.00483 1.54047 6.16923 1.35793 6.40471C1.17538 6.6402 1.08072 6.93199 1.09023 7.22979V10.8698C1.08529 10.9063 1.08529 10.9433 1.09023 10.9798C1.10007 11.0204 1.11854 11.0584 1.14443 11.0912C1.17032 11.124 1.20298 11.1508 1.24019 11.1698C1.31402 11.1993 1.39634 11.1993 1.47017 11.1698C1.52745 11.1378 1.57357 11.089 1.60219 11.03C1.63081 10.971 1.64058 10.9046 1.63021 10.8398V7.46978C1.64166 7.39568 1.67275 7.32602 1.72023 7.26799C1.76771 7.20996 1.82986 7.16572 1.90023 7.13982C1.97113 7.11537 2.04719 7.10986 2.12087 7.12389C2.19454 7.13792 2.26326 7.17097 2.32021 7.21978C2.37019 7.26671 2.4088 7.32448 2.43306 7.3886C2.45733 7.45273 2.46662 7.52157 2.46022 7.58983V12.2098H2.43019Z" fill="#5B5755"/>
<path d="M4.00025 4.84994C3.5421 4.8499 3.09431 4.71364 2.71381 4.45846C2.33331 4.20329 2.03727 3.84075 1.86335 3.4169C1.68942 2.99305 1.64547 2.52705 1.73707 2.07815C1.82866 1.62926 2.05168 1.21774 2.37775 0.895903C2.70382 0.57407 3.11819 0.356496 3.56824 0.270781C4.0183 0.185066 4.48368 0.235071 4.90522 0.414519C5.32676 0.593966 5.68543 0.894729 5.93561 1.27853C6.18579 1.66234 6.3162 2.11187 6.31025 2.56998C6.30496 3.17824 6.05897 3.75962 5.62604 4.18692C5.19312 4.61422 4.60853 4.85261 4.00025 4.84994ZM5.57026 2.54996C5.57026 2.24142 5.47873 1.9398 5.30732 1.68326C5.1359 1.42672 4.8923 1.22681 4.60724 1.10873C4.32219 0.99066 4.00855 0.959733 3.70594 1.01993C3.40333 1.08012 3.12534 1.2287 2.90717 1.44687C2.689 1.66504 2.54042 1.94302 2.48023 2.24563C2.42004 2.54824 2.4509 2.86189 2.56897 3.14694C2.68705 3.43199 2.88702 3.67566 3.14356 3.84707C3.4001 4.01849 3.70172 4.10995 4.01026 4.10995C4.42319 4.10733 4.81843 3.94217 5.11042 3.65018C5.40241 3.35819 5.56763 2.96288 5.57026 2.54996Z" fill="#5B5755"/>
<path d="M4.00038 4.89981C3.36876 4.89344 2.76513 4.63831 2.32038 4.18978C2.00256 3.86138 1.78691 3.44778 1.69965 2.99917C1.6124 2.55057 1.65731 2.08628 1.82887 1.66268C2.00042 1.23909 2.29125 0.874401 2.66609 0.612941C3.04092 0.351481 3.4836 0.204478 3.94038 0.189784H4.00038C4.31189 0.187096 4.62081 0.246617 4.90901 0.364894C5.1972 0.483171 5.4589 0.65782 5.67872 0.878566C5.89853 1.09931 6.07204 1.36172 6.1891 1.65042C6.30615 1.93911 6.36437 2.24828 6.36036 2.55978C6.35905 2.86839 6.29699 3.17373 6.17768 3.45834C6.05837 3.74295 5.88413 4.00124 5.66499 4.21853C5.44584 4.43582 5.18608 4.60787 4.90046 4.72476C4.61484 4.84164 4.30898 4.90112 4.00038 4.89981ZM4.00038 4.79977C4.30913 4.82034 4.61885 4.77732 4.91029 4.67331C5.20173 4.56929 5.46868 4.40651 5.69465 4.19509C5.92062 3.98368 6.10079 3.72812 6.22395 3.44424C6.3471 3.16036 6.41065 2.85421 6.41065 2.54476C6.41065 2.23532 6.3471 1.92917 6.22395 1.64529C6.10079 1.36141 5.92062 1.10585 5.69465 0.894435C5.46868 0.683024 5.20173 0.520298 4.91029 0.416286C4.61885 0.312274 4.30913 0.269187 4.00038 0.28976H3.94038C3.35583 0.305349 2.80028 0.547903 2.39149 0.96603C1.98269 1.38416 1.75277 1.94506 1.75038 2.52981C1.74524 2.82418 1.79925 3.11656 1.90919 3.38967C2.01912 3.66279 2.18275 3.91106 2.39039 4.11978C2.59913 4.33569 2.84933 4.5072 3.12599 4.62405C3.40264 4.7409 3.70005 4.80068 4.00038 4.79977ZM4.00038 4.14981C3.78858 4.15113 3.57863 4.11037 3.3827 4.02993C3.18677 3.94949 3.00872 3.83095 2.85896 3.68118C2.70919 3.53141 2.59064 3.35343 2.5102 3.1575C2.42976 2.96156 2.38906 2.75156 2.39039 2.53976C2.39038 2.11714 2.55758 1.71172 2.85548 1.41195C3.15338 1.11218 3.55774 0.942426 3.98036 0.939784C4.1898 0.937733 4.39757 0.97733 4.59156 1.0563C4.78555 1.13527 4.9619 1.25206 5.11036 1.39981C5.33555 1.62438 5.48919 1.91059 5.55189 2.22238C5.61459 2.53417 5.58359 2.85753 5.46272 3.1517C5.34184 3.44586 5.1365 3.69764 4.87269 3.87527C4.60888 4.0529 4.29839 4.14845 3.98036 4.14981H4.00038ZM4.00038 1.02981C3.80339 1.03112 3.60862 1.0712 3.42713 1.14779C3.24565 1.22439 3.081 1.33594 2.94264 1.47616C2.80428 1.61638 2.6949 1.7825 2.62074 1.96499C2.54657 2.14748 2.50907 2.34278 2.51038 2.53976C2.50576 2.73884 2.54244 2.93676 2.61817 3.12094C2.69391 3.30511 2.80705 3.47153 2.95039 3.60977C3.08885 3.75348 3.25514 3.86749 3.4391 3.94485C3.62305 4.02222 3.82084 4.06133 4.02039 4.05978C4.421 4.0572 4.8046 3.8976 5.08881 3.61526C5.37303 3.33292 5.53512 2.95035 5.54035 2.54977C5.54096 2.34887 5.50147 2.14989 5.4242 1.96444C5.34693 1.77899 5.23348 1.61078 5.0904 1.46975C4.95025 1.32138 4.78124 1.20322 4.59382 1.1224C4.4064 1.04159 4.20448 0.999844 4.00038 0.999782V1.02981Z" fill="#5B5755"/>
<path d="M14.1698 10.0799C14.1714 10.3858 14.0831 10.6854 13.9158 10.9415C13.7485 11.1976 13.5095 11.3989 13.2287 11.5203C12.9479 11.6416 12.6376 11.6777 12.3365 11.6241C12.0353 11.5705 11.7565 11.4296 11.5348 11.2188C11.3131 11.008 11.1583 10.7366 11.0896 10.4385C11.0209 10.1404 11.0414 9.82872 11.1485 9.54216C11.2556 9.25561 11.4446 9.00688 11.692 8.82689C11.9394 8.64691 12.2342 8.54363 12.5398 8.52989C12.7496 8.52047 12.9592 8.55346 13.156 8.627C13.3527 8.70054 13.5326 8.81307 13.6848 8.95781C13.837 9.10256 13.9584 9.27654 14.0418 9.46935C14.1251 9.66216 14.1686 9.86984 14.1698 10.0799ZM12.6198 10.8899C12.8303 10.8926 13.0333 10.8122 13.185 10.6662C13.3366 10.5202 13.4245 10.3203 13.4298 10.1099C13.4339 10.0001 13.4156 9.89075 13.3761 9.78832C13.3366 9.68588 13.2767 9.59253 13.2 9.51396C13.1233 9.4354 13.0314 9.37325 12.93 9.33129C12.8285 9.28932 12.7196 9.26845 12.6098 9.26988C12.3965 9.27496 12.1935 9.36193 12.0426 9.51274C11.8918 9.66356 11.8049 9.86665 11.7998 10.0799C11.7998 10.1871 11.8211 10.2932 11.8624 10.3921C11.9037 10.4911 11.9643 10.5808 12.0406 10.6562C12.1168 10.7315 12.2073 10.791 12.3067 10.8311C12.4062 10.8712 12.5126 10.8912 12.6198 10.8899Z" fill="#5B5755"/>
<path d="M12.6101 11.6898C12.2048 11.6679 11.8227 11.4937 11.5403 11.2021C11.2579 10.9105 11.0961 10.523 11.0873 10.1172C11.0784 9.71138 11.2232 9.31724 11.4926 9.01361C11.762 8.70998 12.1361 8.51928 12.5401 8.47974H12.6101C13.0345 8.48232 13.4411 8.65141 13.7421 8.95062C14.0432 9.24984 14.2148 9.65532 14.22 10.0798C14.2271 10.4809 14.0763 10.8687 13.8001 11.1597C13.5036 11.4781 13.0946 11.6683 12.6601 11.6898H12.6101ZM12.6101 8.56976H12.5401C12.1724 8.62011 11.8362 8.80405 11.5956 9.08649C11.355 9.36892 11.2267 9.73006 11.2354 10.101C11.244 10.472 11.389 10.8268 11.6425 11.0977C11.8961 11.3686 12.2405 11.5366 12.6101 11.5698C12.8119 11.5628 13.0104 11.5159 13.194 11.4318C13.3777 11.3477 13.5429 11.228 13.6801 11.0798C13.9386 10.8113 14.0822 10.4525 14.0801 10.0798C14.0699 9.6808 13.9061 9.30111 13.623 9.01984C13.3399 8.73856 12.9591 8.57736 12.5601 8.56976H12.6101ZM12.6101 10.9398C12.4969 10.9403 12.3848 10.9184 12.2802 10.8755C12.1755 10.8327 12.0803 10.7695 12.0001 10.6898C11.8409 10.5265 11.7512 10.3078 11.7501 10.0798C11.7503 9.96586 11.7735 9.85314 11.8181 9.74835C11.8628 9.64356 11.9281 9.54879 12.0101 9.46973C12.1629 9.31322 12.3714 9.22337 12.5901 9.21973C12.7079 9.21973 12.8245 9.24369 12.9328 9.2901C13.0411 9.33651 13.1388 9.40443 13.22 9.48975C13.2998 9.5711 13.3616 9.66837 13.4012 9.77521C13.4408 9.88204 13.4575 9.99603 13.4501 10.1097C13.4488 10.2201 13.4258 10.3291 13.3823 10.4305C13.3389 10.5319 13.2759 10.6237 13.197 10.7008C13.118 10.7779 13.0247 10.8386 12.9223 10.8796C12.8199 10.9206 12.7104 10.9411 12.6001 10.9398H12.6101ZM12.6101 9.30975C12.4149 9.31359 12.2288 9.3924 12.0901 9.52979C11.948 9.67831 11.866 9.87428 11.8601 10.0798C11.8595 10.1807 11.8797 10.2807 11.9193 10.3735C11.9588 10.4664 12.017 10.5502 12.0901 10.6198C12.1593 10.6934 12.243 10.7519 12.336 10.7914C12.4289 10.831 12.5291 10.8508 12.6301 10.8497C12.8282 10.8498 13.0186 10.7725 13.1605 10.6343C13.3025 10.496 13.3849 10.3078 13.3901 10.1097C13.3954 10.007 13.3795 9.90426 13.3433 9.80792C13.3072 9.71158 13.2516 9.62369 13.1801 9.54974C13.0312 9.40079 12.8306 9.31486 12.6201 9.30975H12.6101Z" fill="#5B5755"/>
</svg>
