<svg width="18" height="12" viewBox="0 0 18 12" fill="none" xmlns="http://www.w3.org/2000/svg">
<path d="M0.169922 5.34988C0.188656 5.254 0.227829 5.16327 0.284775 5.08389C0.34172 5.00451 0.415103 4.93836 0.499924 4.88989C0.606399 4.83658 0.721537 4.80271 0.83992 4.78989C1.05992 4.78989 1.28993 4.78989 1.51993 4.78989V3.12988C1.51378 2.90009 1.58699 2.67521 1.72723 2.49307C1.86748 2.31094 2.06619 2.18267 2.28992 2.12988C2.37256 2.11466 2.45728 2.11466 2.53992 2.12988H3.53993V1.82986C3.53976 1.69423 3.56718 1.55998 3.62053 1.43527C3.67388 1.31057 3.75205 1.19803 3.85027 1.10449C3.94849 1.01095 4.06472 0.938353 4.19188 0.891143C4.31904 0.843934 4.45445 0.823082 4.58992 0.829864H5.58992C5.85514 0.829864 6.10951 0.935235 6.29704 1.12277C6.48458 1.31031 6.58992 1.56465 6.58992 1.82986V4.82986H10.6499V1.82986C10.6499 1.56465 10.7553 1.31031 10.9428 1.12277C11.1304 0.935235 11.3847 0.829864 11.6499 0.829864H12.6499C12.9151 0.829864 13.1695 0.935235 13.357 1.12277C13.5446 1.31031 13.6499 1.56465 13.6499 1.82986V2.16989H14.2099C14.423 2.15477 14.6369 2.15477 14.8499 2.16989C15.0866 2.20822 15.3015 2.33028 15.4557 2.51382C15.6099 2.69737 15.693 2.9302 15.6899 3.16989V4.88989H16.3399C16.4961 4.88362 16.6496 4.93217 16.7738 5.02713C16.898 5.12209 16.985 5.25749 17.0199 5.40988V6.98987C17.0012 7.08575 16.962 7.17648 16.9051 7.25586C16.8481 7.33524 16.7747 7.40142 16.6899 7.44989C16.5835 7.5032 16.4683 7.53704 16.3499 7.54987C16.1299 7.54987 15.8999 7.54987 15.6699 7.54987V9.21988C15.6699 9.4851 15.5646 9.73943 15.377 9.92697C15.1895 10.1145 14.9352 10.2199 14.6699 10.2199H13.6699V10.5399C13.6699 10.8051 13.5646 11.0594 13.377 11.247C13.1895 11.4345 12.9352 11.5399 12.6699 11.5399H11.6699C11.4047 11.5399 11.1504 11.4345 10.9628 11.247C10.7753 11.0594 10.6699 10.8051 10.6699 10.5399V7.49988H6.60991V10.4999C6.60991 10.7651 6.50457 11.0194 6.31703 11.207C6.1295 11.3945 5.87513 11.4999 5.60991 11.4999H4.60991C4.34469 11.4999 4.09035 11.3945 3.90282 11.207C3.71528 11.0194 3.60991 10.7651 3.60991 10.4999V10.1799H2.60992C2.34471 10.1799 2.09035 10.0745 1.90282 9.88699C1.71528 9.69946 1.60992 9.44509 1.60992 9.17987V7.49988H0.989929C0.824198 7.50843 0.660823 7.45782 0.528946 7.35709C0.397069 7.25635 0.305269 7.11203 0.269928 6.94989V5.34988H0.169922ZM5.92992 6.13989V1.75989C5.933 1.71095 5.92547 1.6619 5.90782 1.61615C5.89018 1.5704 5.86283 1.52901 5.82768 1.49481C5.79254 1.46061 5.75043 1.43441 5.70421 1.41803C5.65799 1.40164 5.60876 1.39545 5.55992 1.39987H4.62993C4.35993 1.39987 4.23991 1.51989 4.23991 1.78989V10.5199C4.23527 10.5683 4.24141 10.6172 4.25786 10.663C4.27431 10.7088 4.30066 10.7503 4.33507 10.7847C4.36947 10.8191 4.41105 10.8455 4.45683 10.8619C4.50262 10.8784 4.5515 10.8845 4.59993 10.8799H5.54991C5.60044 10.8861 5.65172 10.8809 5.69997 10.8647C5.74821 10.8484 5.79222 10.8216 5.82869 10.786C5.86516 10.7505 5.8932 10.7072 5.91072 10.6595C5.92825 10.6117 5.93479 10.5606 5.92992 10.5099V6.13989ZM13.0499 6.13989V1.75989C13.0565 1.70975 13.0514 1.65875 13.0351 1.61087C13.0189 1.56299 12.9918 1.51949 12.956 1.48373C12.9203 1.44798 12.8768 1.42094 12.8289 1.40466C12.7811 1.38839 12.7301 1.38334 12.6799 1.38989H11.7299C11.6798 1.38334 11.6288 1.38839 11.5809 1.40466C11.533 1.42094 11.4895 1.44798 11.4538 1.48373C11.418 1.51949 11.391 1.56299 11.3747 1.61087C11.3584 1.65875 11.3534 1.70975 11.3599 1.75989V10.5099C11.3553 10.5596 11.3617 10.6098 11.3786 10.6568C11.3956 10.7038 11.4227 10.7464 11.4581 10.7817C11.4934 10.8171 11.5361 10.8442 11.5831 10.8611C11.63 10.8781 11.6802 10.8845 11.7299 10.8799H12.6499C12.9299 10.8799 13.0599 10.7499 13.0599 10.4799L13.0499 6.13989ZM3.54991 9.51987V2.73987H2.54993C2.49545 2.73132 2.43972 2.73579 2.38728 2.75287C2.33485 2.76995 2.28721 2.79917 2.24821 2.83816C2.20922 2.87716 2.17998 2.9248 2.1629 2.97723C2.14582 3.02967 2.14137 3.08541 2.14992 3.13989V9.13989C2.14721 9.18456 2.15335 9.22932 2.16798 9.27161C2.18261 9.31389 2.20545 9.35288 2.23518 9.38632C2.26491 9.41977 2.30095 9.447 2.34123 9.46649C2.38151 9.48598 2.42525 9.49733 2.46992 9.49988L3.54991 9.51987ZM13.7199 9.51987H14.7199C14.7731 9.52848 14.8275 9.52436 14.8788 9.50781C14.9301 9.49126 14.9766 9.46277 15.0147 9.42468C15.0528 9.3866 15.0813 9.34001 15.0979 9.28876C15.1144 9.2375 15.1185 9.18305 15.1099 9.12988V3.12988C15.1164 3.07843 15.1111 3.02615 15.0943 2.97708C15.0775 2.92801 15.0497 2.88344 15.013 2.84677C14.9763 2.8101 14.9318 2.7823 14.8827 2.7655C14.8336 2.74871 14.7814 2.74337 14.7299 2.74988H13.7299L13.7199 9.51987ZM6.60991 5.45987V6.79987H10.6699V5.45987H6.60991ZM1.51993 5.45987H0.84993V6.79987H1.51993V5.45987ZM15.7599 5.45987V6.79987H16.4299V5.45987H15.7599Z" fill="#5B5755"/>
<path d="M12.3603 11.6496H11.6904C11.4002 11.6445 11.1234 11.527 10.9182 11.3218C10.713 11.1166 10.5955 10.8398 10.5903 10.5496V7.54962H6.69035V10.4896C6.68779 10.7815 6.57138 11.0609 6.36592 11.2682C6.16046 11.4755 5.88219 11.5944 5.59035 11.5996H4.59035C4.4429 11.601 4.29666 11.5729 4.16017 11.5171C4.02368 11.4613 3.89969 11.3788 3.79543 11.2746C3.69116 11.1703 3.60871 11.0463 3.5529 10.9098C3.49709 10.7733 3.46902 10.6271 3.47035 10.4796V10.2396H2.54034C2.24861 10.2396 1.96882 10.1237 1.76253 9.91745C1.55624 9.71116 1.44035 9.43139 1.44035 9.13965V7.53964H0.860352C0.68721 7.53994 0.519016 7.48187 0.382935 7.37482C0.246853 7.26777 0.150826 7.11799 0.110352 6.94965V5.28964C0.12933 5.18215 0.172502 5.08036 0.236603 4.992C0.300703 4.90365 0.384048 4.83103 0.480347 4.77963C0.598424 4.71803 0.727624 4.68064 0.860352 4.66965H1.46036V3.09964C1.45272 2.84917 1.53083 2.6036 1.68176 2.40356C1.8327 2.20353 2.04739 2.06103 2.29034 1.99963C2.37993 1.98743 2.47076 1.98743 2.56035 1.99963H3.49034V1.77963C3.48614 1.62925 3.51284 1.4796 3.56877 1.33994C3.6247 1.20027 3.70869 1.07356 3.81554 0.967651C3.92239 0.86174 4.04984 0.778882 4.18999 0.724182C4.33014 0.669482 4.48001 0.644098 4.63036 0.649628H5.63036C5.91784 0.654762 6.19212 0.771267 6.39543 0.974579C6.59874 1.17789 6.71522 1.45214 6.72035 1.73962V4.73962H10.6203V1.73962C10.6203 1.44789 10.7362 1.16811 10.9425 0.961823C11.1488 0.755532 11.4286 0.639648 11.7204 0.639648H12.7204C13.0069 0.644848 13.2801 0.761664 13.4818 0.96524C13.6835 1.16882 13.7978 1.44307 13.8003 1.72964V1.99963H14.4504C14.6104 1.99963 14.7703 1.99963 14.9303 1.99963C15.1813 2.04359 15.4093 2.17331 15.5752 2.36664C15.7412 2.55996 15.8349 2.80489 15.8403 3.05963V4.68964H16.4104C16.5857 4.68521 16.7571 4.74153 16.8956 4.84906C17.0341 4.95659 17.1312 5.10871 17.1704 5.27963V5.33963V6.99963C17.1487 7.10483 17.1043 7.20406 17.0405 7.29041C16.9766 7.37675 16.8946 7.44814 16.8003 7.49963C16.6853 7.55998 16.5597 7.59733 16.4303 7.60962C16.2672 7.61963 16.1035 7.61963 15.9404 7.60962H15.8204V9.19965C15.8217 9.3471 15.7936 9.49333 15.7378 9.62982C15.682 9.76631 15.5996 9.8903 15.4953 9.99457C15.391 10.0988 15.267 10.1813 15.1305 10.2371C14.9941 10.2929 14.8478 10.321 14.7004 10.3196H13.7904V10.5596C13.7917 10.7071 13.7636 10.8533 13.7078 10.9898C13.652 11.1263 13.5696 11.2503 13.4653 11.3546C13.361 11.4588 13.237 11.5413 13.1005 11.5971C12.9641 11.6529 12.8178 11.681 12.6704 11.6796L12.3603 11.6496ZM6.53035 7.41965H10.7604V10.5496C10.7604 10.6718 10.7844 10.7927 10.8311 10.9055C10.8779 11.0184 10.9464 11.1209 11.0327 11.2072C11.1191 11.2936 11.2216 11.3621 11.3345 11.4088C11.4473 11.4556 11.5682 11.4796 11.6904 11.4796H12.6904C12.8198 11.4813 12.9483 11.4562 13.0676 11.4058C13.1869 11.3555 13.2946 11.281 13.3838 11.1871C13.473 11.0932 13.5418 10.9819 13.586 10.8602C13.6301 10.7384 13.6486 10.6089 13.6404 10.4796V10.0796H14.7204C14.9768 10.0668 15.2185 9.95579 15.3953 9.76962C15.5722 9.58346 15.6707 9.3364 15.6704 9.07962V7.32962H16.4303C16.5413 7.31768 16.6495 7.28727 16.7504 7.23962C16.8221 7.19583 16.8839 7.13771 16.9321 7.06888C16.9803 7.00005 17.0137 6.92199 17.0303 6.83963V5.28964C17.0019 5.15389 16.9257 5.03282 16.8156 4.94843C16.7055 4.86403 16.5688 4.82188 16.4303 4.82962H15.6904V3.02963C15.6906 2.81504 15.6141 2.60744 15.4748 2.44424C15.3354 2.28105 15.1423 2.17303 14.9303 2.13965C14.7772 2.12944 14.6235 2.12944 14.4704 2.13965H14.3003C14.1703 2.13965 14.0504 2.13965 13.9104 2.13965H13.6604V1.70963C13.6578 1.46548 13.5604 1.23192 13.3887 1.05835C13.2169 0.884775 12.9844 0.784814 12.7403 0.779633H11.7403C11.4928 0.782266 11.2563 0.882472 11.0821 1.05847C10.908 1.23447 10.8103 1.47205 10.8103 1.71964V4.83963H6.57036V1.70963C6.56782 1.46548 6.47037 1.23192 6.29866 1.05835C6.12695 0.884775 5.89444 0.784814 5.65034 0.779633H4.65034C4.51674 0.770794 4.38279 0.79061 4.25746 0.837738C4.13213 0.884866 4.01831 0.958235 3.92363 1.05292C3.82895 1.1476 3.75558 1.26142 3.70845 1.38675C3.66132 1.51208 3.64151 1.64602 3.65034 1.77963V2.16965H2.55035C2.47409 2.15857 2.39662 2.15857 2.32036 2.16965C2.1126 2.22052 1.92905 2.34218 1.8013 2.51373C1.67355 2.68529 1.60956 2.89599 1.62035 3.10962V4.84964H0.860352C0.748049 4.86113 0.639208 4.89515 0.540344 4.94965C0.468536 4.9909 0.406405 5.04702 0.358109 5.11429C0.309812 5.18156 0.276469 5.2584 0.260345 5.33963V6.87964C0.260345 6.87964 0.260345 6.87963 0.260345 6.92963C0.290085 7.06364 0.364889 7.18342 0.47226 7.26895C0.57963 7.35448 0.713086 7.4006 0.850357 7.39963H1.60036V9.17963C1.60034 9.42721 1.698 9.66479 1.87213 9.84079C2.04626 10.0168 2.28278 10.117 2.53035 10.1196H3.63036V10.5196C3.62208 10.6489 3.64059 10.7784 3.68474 10.9002C3.72889 11.0219 3.79772 11.1332 3.88692 11.2271C3.97611 11.321 4.08375 11.3955 4.20308 11.4458C4.3224 11.4961 4.45084 11.5213 4.58034 11.5196H5.58034C5.82498 11.5053 6.05589 11.4017 6.22917 11.2285C6.40246 11.0552 6.50605 10.8243 6.52034 10.5796L6.53035 7.41965ZM5.07036 10.9996H4.60036C4.54051 11.0025 4.48071 10.9928 4.42482 10.9712C4.36893 10.9496 4.31817 10.9165 4.2758 10.8742C4.23343 10.8318 4.20039 10.781 4.17879 10.7252C4.15718 10.6693 4.14749 10.6095 4.15034 10.5496V1.81964C4.14387 1.75545 4.15192 1.6906 4.1739 1.62994C4.19589 1.56928 4.23123 1.51435 4.27733 1.46921C4.32343 1.42407 4.37909 1.3899 4.4402 1.3692C4.50131 1.3485 4.56631 1.34181 4.63036 1.34964H5.56035C5.6197 1.34531 5.6793 1.35364 5.73518 1.37408C5.79107 1.39453 5.84196 1.42663 5.88451 1.46823C5.92705 1.50983 5.96028 1.55998 5.98198 1.61539C6.00367 1.6708 6.01335 1.73021 6.01036 1.78964V10.5396C6.0166 10.6016 6.00899 10.6642 5.98808 10.7228C5.96717 10.7815 5.93348 10.8347 5.88945 10.8787C5.84542 10.9228 5.79215 10.9564 5.73351 10.9774C5.67486 10.9983 5.61229 11.0059 5.55034 10.9996H5.07036ZM4.63036 1.50964C4.41036 1.50964 4.32036 1.59964 4.32036 1.81964V10.5496C4.31545 10.5876 4.31931 10.6261 4.33165 10.6623C4.34399 10.6985 4.36445 10.7314 4.39149 10.7585C4.41854 10.7855 4.45145 10.806 4.48766 10.8183C4.52386 10.8307 4.56242 10.8345 4.60036 10.8296H5.55034C5.75034 10.8296 5.85036 10.7396 5.85036 10.5396V1.78964C5.8536 1.75118 5.84825 1.71246 5.83467 1.67633C5.8211 1.6402 5.79963 1.60756 5.77187 1.58075C5.7441 1.55394 5.7107 1.53363 5.67412 1.52133C5.63753 1.50903 5.59867 1.50505 5.56035 1.50964H4.63036ZM12.6304 10.9996H11.7103C11.6505 11.0025 11.5907 10.9928 11.5348 10.9712C11.4789 10.9496 11.4282 10.9165 11.3858 10.8742C11.3434 10.8318 11.3104 10.781 11.2888 10.7252C11.2672 10.6693 11.2575 10.6095 11.2604 10.5496V1.79962C11.2541 1.73898 11.2614 1.67772 11.2818 1.62027C11.3022 1.56282 11.3351 1.51067 11.3783 1.46756C11.4214 1.42445 11.4735 1.39149 11.531 1.37109C11.5884 1.3507 11.6497 1.34337 11.7103 1.34964H12.6604C12.7214 1.34362 12.783 1.35103 12.8409 1.37137C12.8987 1.39171 12.9514 1.42449 12.9953 1.46738C13.0391 1.51027 13.073 1.56223 13.0947 1.61963C13.1163 1.67703 13.125 1.73847 13.1203 1.79962V10.5196C13.1253 10.5846 13.1172 10.6499 13.0966 10.7117C13.076 10.7735 13.0433 10.8306 13.0004 10.8796C12.9008 10.9654 12.7715 11.0085 12.6404 10.9996H12.6304ZM12.0203 10.8296H12.6304C12.7197 10.8403 12.8096 10.8151 12.8804 10.7596C12.9343 10.6919 12.9594 10.6057 12.9504 10.5196V1.79962C12.9574 1.75998 12.9548 1.71924 12.9427 1.68082C12.9307 1.6424 12.9095 1.60746 12.881 1.57898C12.8525 1.5505 12.8176 1.52932 12.7792 1.51724C12.7408 1.50517 12.7 1.50258 12.6604 1.50964H11.7103C11.6707 1.50258 11.6299 1.50517 11.5915 1.51724C11.5531 1.52932 11.5182 1.5505 11.4897 1.57898C11.4612 1.60746 11.44 1.6424 11.428 1.68082C11.4159 1.71924 11.4133 1.75998 11.4204 1.79962V10.5496C11.4171 10.5881 11.4225 10.6268 11.4361 10.6629C11.4496 10.6991 11.4711 10.7317 11.4988 10.7585C11.5266 10.7853 11.56 10.8056 11.5966 10.8179C11.6332 10.8302 11.672 10.8342 11.7103 10.8296H12.0203ZM3.00035 9.60962H2.57036C2.51474 9.60841 2.45994 9.5959 2.40932 9.57285C2.35869 9.54979 2.31328 9.51669 2.27586 9.47552C2.23844 9.43436 2.20979 9.38602 2.19165 9.33344C2.17351 9.28085 2.16627 9.22513 2.17035 9.16965V3.16965C2.1601 3.10427 2.16543 3.03737 2.18593 2.97446C2.20642 2.91154 2.24151 2.85438 2.2883 2.80759C2.33509 2.7608 2.39227 2.72573 2.45518 2.70523C2.5181 2.68473 2.58497 2.67938 2.65034 2.68964H3.65034V9.62964H3.00035V9.60962ZM2.65034 2.82962C2.42034 2.82962 2.34035 2.91963 2.34035 3.14963V8.14963C2.34035 8.49963 2.34035 8.84963 2.34035 9.20963C2.33616 9.24274 2.33893 9.27636 2.34846 9.30835C2.358 9.34034 2.37411 9.37001 2.39575 9.39542C2.4174 9.42083 2.4441 9.44143 2.47417 9.45593C2.50423 9.47044 2.537 9.47852 2.57036 9.47964H3.57036V2.85962L2.65034 2.82962ZM14.7403 9.60962H13.6904V2.66965H14.7504C14.8123 2.6634 14.8749 2.67099 14.9335 2.69189C14.9922 2.7128 15.0454 2.7465 15.0895 2.79053C15.1335 2.83455 15.1672 2.88782 15.1881 2.94647C15.209 3.00512 15.2166 3.06769 15.2103 3.12964V9.12964C15.2227 9.19904 15.2174 9.27043 15.195 9.33725C15.1725 9.40407 15.1335 9.46418 15.0817 9.51199C15.0299 9.55981 14.9669 9.59381 14.8985 9.61087C14.8301 9.62794 14.7585 9.6275 14.6904 9.60962H14.7403ZM13.8603 9.44965H14.7403C14.9503 9.44965 15.0503 9.35965 15.0503 9.13965V6.99963C15.0503 5.69963 15.0503 4.38963 15.0503 3.08963C15.0503 2.88963 14.9604 2.79962 14.7604 2.79962H13.8703L13.8603 9.44965ZM1.60036 6.89963H0.770355V5.38965H1.60036V6.89963ZM0.940353 6.72964H1.44035V5.54962H0.940353V6.72964ZM10.7504 6.88965H6.53035V5.38965H10.7504V6.88965ZM6.70036 6.72964H10.5903V5.54962H6.70036V6.72964ZM16.5104 6.88965H15.6803V5.38965H16.5104V6.88965ZM15.8403 6.72964H16.3504V5.54962H15.8403V6.72964Z" fill="#5B5755"/>
</svg>
