<svg width="16" height="15" viewBox="0 0 16 15" fill="none" xmlns="http://www.w3.org/2000/svg">
<path d="M15.8401 12.0799C15.8176 12.1787 15.7712 12.2704 15.7049 12.3472C15.6387 12.4239 15.5546 12.4832 15.4601 12.5199C14.4497 13.0332 13.3824 13.4259 12.2801 13.6899C11.4983 13.8863 10.7027 14.0233 9.90013 14.0998C7.50157 14.3356 5.08053 14.0385 2.81014 13.2298C2.17014 13.0098 1.56013 12.7598 0.950134 12.4798C0.877926 12.4564 0.812009 12.4168 0.75737 12.3641C0.702731 12.3114 0.660803 12.247 0.634781 12.1756C0.60876 12.1043 0.59932 12.0281 0.607178 11.9526C0.615036 11.8771 0.639982 11.8043 0.68013 11.7399L1.45013 10.1799C1.47724 10.1105 1.5192 10.048 1.57306 9.99663C1.62691 9.94525 1.69137 9.90626 1.76189 9.88243C1.83241 9.85861 1.90728 9.8505 1.98126 9.85869C2.05525 9.86689 2.12654 9.89118 2.19014 9.92986L3.10014 10.3399H3.17014L3.60014 7.58989H3.46014C3.14553 7.61562 2.82929 7.56651 2.53729 7.44658C2.2453 7.32665 1.98584 7.13932 1.78014 6.89989C1.72029 6.84147 1.67751 6.7678 1.65639 6.68688C1.63526 6.60596 1.63659 6.52082 1.66025 6.4406C1.6839 6.36038 1.72899 6.28813 1.79063 6.23162C1.85228 6.1751 1.92816 6.13647 2.01013 6.11986C2.25129 6.02935 2.46013 5.86923 2.61014 5.65984C2.89366 5.34427 3.10823 4.97306 3.24014 4.56987C3.28217 4.45955 3.35798 4.3653 3.45676 4.30065C3.55553 4.23599 3.67221 4.20426 3.79013 4.20989H8.33014C8.37578 4.21382 8.42151 4.20341 8.46095 4.1801C8.50039 4.1568 8.53157 4.12176 8.55014 4.07988C9.0217 3.24312 9.71337 2.55144 10.5501 2.07988C11.3577 1.62648 12.2371 1.31523 13.1501 1.15984C13.5819 1.07211 14.0199 1.01864 14.4601 0.999865C14.5355 0.990656 14.6119 0.998362 14.6839 1.02245C14.7559 1.04653 14.8215 1.08639 14.8761 1.13909C14.9308 1.19178 14.9729 1.25601 14.9996 1.32707C15.0262 1.39814 15.0366 1.47424 15.0301 1.54985V6.78984C15.036 6.86533 15.0256 6.94124 14.9997 7.01238C14.9737 7.08351 14.9329 7.14825 14.8798 7.20226C14.8267 7.25627 14.7627 7.29824 14.692 7.32543C14.6214 7.35262 14.5457 7.36436 14.4701 7.35985H13.6301C13.4931 7.37149 13.3567 7.33035 13.2489 7.24486C13.1411 7.15937 13.07 7.03602 13.0501 6.89989C13.0089 6.54516 12.8336 6.21959 12.5601 5.98985L12.4701 5.92986L13.3701 10.2999H13.4801L14.3501 9.88988C14.4147 9.84957 14.4875 9.82418 14.5631 9.81566C14.6388 9.80714 14.7154 9.81569 14.7873 9.84062C14.8592 9.86556 14.9246 9.90625 14.9788 9.95976C15.0329 10.0133 15.0744 10.0783 15.1001 10.1499L15.7901 11.6899C15.8178 11.7515 15.8412 11.815 15.8601 11.8799L15.8401 12.0799ZM14.4801 10.6999H14.4201L13.3601 11.1698C13.2915 11.204 13.2157 11.2212 13.139 11.22C13.0624 11.2188 12.9871 11.1993 12.9196 11.1631C12.852 11.1268 12.7941 11.075 12.7507 11.0118C12.7073 10.9486 12.6797 10.8759 12.6701 10.7999L12.3701 9.33989C12.1101 8.10989 11.8601 6.87988 11.6001 5.63988C11.5802 5.56245 11.5809 5.48115 11.602 5.40404C11.623 5.32693 11.6639 5.25665 11.7204 5.20012C11.7769 5.14359 11.8472 5.1028 11.9243 5.08171C12.0014 5.06062 12.0827 5.05999 12.1601 5.07988C12.6302 5.17066 13.0543 5.42153 13.3601 5.78984C13.5553 6.02982 13.6952 6.30977 13.7701 6.60985V6.67986H14.2401V1.83989C13.8601 1.89989 13.4901 1.92987 13.1201 2.00987C12.246 2.18005 11.4137 2.51978 10.6701 3.00987C10.0241 3.41037 9.49334 3.97212 9.13014 4.63988C9.07874 4.75953 8.99152 4.86028 8.88049 4.92833C8.76946 4.99638 8.64008 5.02839 8.51013 5.01988H4.00014C3.97417 5.01841 3.94842 5.02541 3.92677 5.03984C3.90513 5.05427 3.88877 5.0753 3.88014 5.09984C3.64731 5.68559 3.27278 6.20443 2.79013 6.60985L2.65013 6.70989C2.81663 6.81603 3.00624 6.88053 3.20293 6.89794C3.39961 6.91534 3.59759 6.88512 3.78014 6.80986C3.88133 6.78014 3.98894 6.78014 4.09013 6.80986C4.14961 6.82122 4.20603 6.84502 4.25568 6.87969C4.30532 6.91435 4.34708 6.95911 4.37824 7.01103C4.40939 7.06296 4.42923 7.12084 4.43645 7.18096C4.44367 7.24107 4.43811 7.30203 4.42014 7.35985C4.34014 7.83985 4.27014 8.35986 4.19014 8.80986C4.09014 9.49986 3.98013 10.1899 3.87013 10.8699C3.86535 10.9462 3.84162 11.0201 3.80109 11.0849C3.76055 11.1498 3.70448 11.2035 3.63797 11.2412C3.57146 11.2789 3.4966 11.2994 3.42015 11.301C3.3437 11.3025 3.26809 11.2849 3.20013 11.2499L2.63014 11.0199L2.04013 10.7699L1.46014 11.9499C3.60931 12.951 5.94929 13.4763 8.32014 13.4899C10.6398 13.4835 12.9264 12.9393 15.0001 11.8999L14.4801 10.6999Z" fill="#5B5755" stroke="#5B5755" stroke-width="0.25" stroke-miterlimit="10"/>
<path d="M8.33988 8.71968H10.1099C10.2316 8.71489 10.3516 8.7492 10.4524 8.81758C10.5532 8.88596 10.6294 8.98483 10.6699 9.09969C10.9599 9.78969 11.2499 10.4797 11.5299 11.1697C11.5642 11.239 11.5812 11.3157 11.5794 11.393C11.5777 11.4704 11.5573 11.5461 11.52 11.6139C11.4827 11.6817 11.4295 11.7394 11.3651 11.7822C11.3007 11.825 11.2268 11.8516 11.1499 11.8597C10.1629 12.0607 9.15703 12.1546 8.14987 12.1397C7.24581 12.1161 6.34563 12.0124 5.45989 11.8297C5.38725 11.8184 5.31828 11.7901 5.25855 11.7473C5.19881 11.7044 5.14996 11.6481 5.11592 11.583C5.08188 11.5178 5.0636 11.4456 5.06255 11.3721C5.0615 11.2986 5.07771 11.2258 5.10988 11.1597L6.10988 9.0497C6.15852 8.95063 6.23397 8.86719 6.32765 8.80885C6.42134 8.75052 6.52951 8.71961 6.63988 8.71968H8.33988ZM10.7199 11.1797L10.0299 9.51973C10.0299 9.51973 9.97988 9.51973 9.93988 9.51973H6.73989C6.71881 9.51623 6.69717 9.52033 6.67885 9.53133C6.66053 9.54232 6.64671 9.55948 6.63988 9.57973L5.93988 11.1197V11.1897C7.52138 11.4678 9.13956 11.4644 10.7199 11.1797Z" fill="#5B5755" stroke="#5B5755" stroke-width="0.25" stroke-miterlimit="10"/>
<path d="M13.2598 4.30988C13.2099 4.31134 13.1603 4.30246 13.1141 4.28375C13.0679 4.26504 13.0261 4.2369 12.9913 4.20117C12.9565 4.16545 12.9295 4.12287 12.912 4.07617C12.8946 4.02947 12.887 3.97966 12.8898 3.92987C12.881 3.87688 12.8838 3.8226 12.8981 3.77081C12.9124 3.71903 12.9378 3.67098 12.9725 3.63C13.0072 3.58903 13.0505 3.55609 13.0992 3.53351C13.148 3.51093 13.2011 3.49927 13.2548 3.49927C13.3085 3.49927 13.3616 3.51093 13.4103 3.53351C13.459 3.55609 13.5023 3.58903 13.537 3.63C13.5717 3.67098 13.5971 3.71903 13.6114 3.77081C13.6257 3.8226 13.6286 3.87688 13.6198 3.92987C13.6225 3.9788 13.6152 4.02778 13.5983 4.07379C13.5815 4.1198 13.5554 4.16187 13.5217 4.19745C13.488 4.23303 13.4473 4.26137 13.4023 4.2807C13.3573 4.30003 13.3088 4.30995 13.2598 4.30988Z" fill="#5B5755" stroke="#5B5755" stroke-width="0.25" stroke-miterlimit="10"/>
</svg>
