<svg width="20" height="16" viewBox="0 0 20 16" fill="none" xmlns="http://www.w3.org/2000/svg">
<path d="M17.0003 13.4298H2.9403C2.8903 13.2098 2.83032 12.9898 2.78032 12.7598C2.78057 12.7422 2.77694 12.7248 2.7697 12.7087C2.76246 12.6927 2.75175 12.6785 2.73839 12.6671C2.72504 12.6556 2.70933 12.6472 2.69237 12.6425C2.67542 12.6378 2.65766 12.6369 2.64031 12.6398H1.55028C1.43096 12.6235 1.31967 12.5705 1.23186 12.488C1.14406 12.4056 1.0841 12.2979 1.06029 12.1798C1.04269 12.0552 1.06058 11.9281 1.11187 11.8131C1.16316 11.6981 1.24575 11.6 1.35027 11.5298C1.39919 11.5151 1.45138 11.5151 1.5003 11.5298H2.61028C2.61028 11.3298 2.61028 11.1498 2.61028 10.9598C2.70682 9.15323 3.48186 7.44964 4.78032 6.18982C5.7918 5.17602 7.07805 4.48073 8.48028 4.18982C9.74721 3.9484 11.0548 4.03381 12.2795 4.43799C13.5043 4.84216 14.6059 5.55176 15.4803 6.49981C16.4012 7.51621 16.9998 8.78302 17.2003 10.1398C17.2484 10.4179 17.2818 10.6982 17.3003 10.9798C17.3003 11.0698 17.3003 11.0898 17.4303 11.0898H18.3803C18.4911 11.1043 18.5957 11.1494 18.6823 11.22C18.7689 11.2907 18.834 11.3841 18.8703 11.4898C18.9042 11.6251 18.8944 11.7676 18.8423 11.897C18.7902 12.0263 18.6985 12.1358 18.5803 12.2098C18.5405 12.2156 18.5001 12.2156 18.4603 12.2098H17.4603C17.2303 12.2098 17.2303 12.2098 17.1903 12.4498C17.1503 12.6898 17.1003 13.1098 17.0003 13.4298ZM16.0503 12.2398C16.219 11.1065 16.0656 9.94853 15.6076 8.89819C15.1496 7.84786 14.4056 6.94744 13.4603 6.2998C12.4151 5.59206 11.1798 5.218 9.91753 5.22693C8.65527 5.23585 7.42541 5.62734 6.39031 6.34979C5.46441 7.00087 4.73755 7.89639 4.29082 8.9364C3.8441 9.97641 3.69504 11.12 3.86028 12.2398H16.0503Z" fill="#5B5755" stroke="#5B5755" stroke-width="0.25" stroke-miterlimit="10"/>
<path d="M10.1299 15.5997H2.87994C2.79994 15.5997 2.69991 15.5997 2.65991 15.5997C2.54247 15.5086 2.44685 15.3925 2.37994 15.2598C2.34617 15.1687 2.33582 15.0706 2.34979 14.9745C2.36377 14.8784 2.40165 14.7874 2.45996 14.7098C2.4998 14.6427 2.55709 14.5876 2.62579 14.5506C2.6945 14.5137 2.77197 14.4961 2.84992 14.4997H13.1899H17.3599C17.4688 14.5004 17.5754 14.5317 17.6674 14.59C17.7593 14.6484 17.833 14.7315 17.8799 14.8298C17.9233 14.932 17.937 15.0445 17.9193 15.1542C17.9016 15.2638 17.8533 15.3663 17.78 15.4498C17.7486 15.4943 17.7116 15.5347 17.6699 15.5698C17.6185 15.6126 17.5562 15.6404 17.4899 15.6498H10.1299V15.5997Z" fill="#5B5755" stroke="#5B5755" stroke-width="0.25" stroke-miterlimit="10"/>
<path d="M10.56 1.69989V2.7699C10.5451 2.88978 10.4926 3.00183 10.4099 3.0899C10.3272 3.17797 10.2187 3.23749 10.1 3.25989C9.97636 3.27738 9.85036 3.26051 9.73571 3.21112C9.62106 3.16173 9.52221 3.0817 9.45 2.97986C9.43984 2.9405 9.43984 2.89922 9.45 2.85986C9.45 2.0932 9.45 1.3232 9.45 0.549866C9.45133 0.495997 9.46873 0.443793 9.49999 0.399902C9.55758 0.321365 9.63285 0.257464 9.71972 0.21344C9.80659 0.169416 9.90261 0.146484 9.99999 0.146484C10.0974 0.146484 10.1934 0.169416 10.2803 0.21344C10.3671 0.257464 10.4424 0.321365 10.5 0.399902C10.5133 0.445617 10.5133 0.494142 10.5 0.539856L10.56 1.69989Z" fill="#5B5755" stroke="#5B5755" stroke-width="0.25" stroke-miterlimit="10"/>
<path d="M8.57031 2.29995C8.57031 2.48995 8.57031 2.67995 8.57031 2.85995C8.58559 2.90193 8.58559 2.94797 8.57031 2.98995C8.50332 3.08924 8.40942 3.16735 8.29961 3.21517C8.1898 3.26299 8.06863 3.27856 7.95031 3.25997C7.82912 3.24104 7.71747 3.18285 7.63256 3.09432C7.54765 3.0058 7.49414 2.89186 7.48028 2.76998C7.48028 2.46998 7.48028 2.17997 7.48028 1.87997C7.47427 1.76972 7.50284 1.66033 7.562 1.5671C7.62117 1.47388 7.70798 1.40145 7.8103 1.35995C7.90012 1.31746 7.99994 1.30059 8.09875 1.31118C8.19755 1.32177 8.29151 1.35939 8.37029 1.41995C8.45574 1.45973 8.52615 1.52591 8.57116 1.60873C8.61617 1.69154 8.63339 1.78663 8.62029 1.87997C8.59356 2.01859 8.57687 2.15893 8.57031 2.29995Z" fill="#5B5755" stroke="#5B5755" stroke-width="0.25" stroke-miterlimit="10"/>
<path d="M12.5404 2.29978C12.5404 2.42978 12.5404 2.5598 12.5404 2.6898C12.5404 2.8198 12.5404 2.89982 12.5404 2.95982C12.4623 3.07528 12.3554 3.16831 12.2304 3.22977C12.121 3.27307 12.0015 3.28384 11.8862 3.26078C11.7709 3.23772 11.6647 3.18179 11.5804 3.09977C11.5276 3.05027 11.4867 2.98951 11.4607 2.92197C11.4347 2.85444 11.4244 2.78192 11.4304 2.70982C11.4304 2.40982 11.4304 2.10979 11.4304 1.80979C11.4331 1.7302 11.4541 1.65227 11.4916 1.58207C11.5292 1.51187 11.5825 1.45126 11.6472 1.40488C11.712 1.3585 11.7865 1.32763 11.8651 1.31461C11.9436 1.30159 12.0241 1.30679 12.1004 1.32981C12.2704 1.37932 12.4208 1.48069 12.5304 1.61979C12.5397 1.65586 12.5397 1.6937 12.5304 1.72977L12.5404 2.29978Z" fill="#5B5755" stroke="#5B5755" stroke-width="0.25" stroke-miterlimit="10"/>
<path d="M14.7903 10.6498C14.7768 10.8045 14.7534 10.9581 14.7203 11.1098C14.6879 11.1846 14.6398 11.2516 14.5793 11.3063C14.5188 11.3609 14.4473 11.402 14.3695 11.4266C14.2918 11.4513 14.2098 11.459 14.1288 11.4492C14.0479 11.4394 13.97 11.4123 13.9004 11.3698C13.8192 11.3199 13.7513 11.2511 13.7026 11.1693C13.6538 11.0874 13.6256 10.995 13.6203 10.8998C13.6102 10.4514 13.5223 10.0081 13.3603 9.58984C12.9859 8.73842 12.3037 8.05979 11.4504 7.68982C11.2604 7.59982 11.0404 7.53983 10.8404 7.44983C10.702 7.40198 10.5854 7.30594 10.5119 7.17926C10.4385 7.05258 10.4131 6.9037 10.4403 6.75983C10.4688 6.64517 10.5323 6.54218 10.6219 6.46515C10.7114 6.38812 10.8227 6.34085 10.9403 6.32983C11.1246 6.33295 11.3071 6.36673 11.4803 6.42981C12.1294 6.63658 12.7271 6.97884 13.2339 7.43396C13.7408 7.88908 14.1452 8.44669 14.4203 9.06982C14.6382 9.56979 14.7635 10.1051 14.7903 10.6498Z" fill="#5B5755" stroke="#5B5755" stroke-width="0.25" stroke-miterlimit="10"/>
</svg>
