<svg width="52" height="55" viewBox="0 0 52 55" fill="none" xmlns="http://www.w3.org/2000/svg">
<path d="M27 18.9201V17.5301C29.9749 15.1898 33.3689 13.4385 37 12.3701C37.04 12.7301 37.07 13.1001 37.09 13.4801C35.32 14.0601 30.44 15.8001 27 18.9201Z" fill="#13110C"/>
<path d="M26.8105 13.5798C29.6561 11.3348 32.8297 9.54048 36.2205 8.25977C36.3105 8.60977 36.3905 8.96977 36.4705 9.32977C32.9684 10.6577 29.7159 12.5679 26.8505 14.9798L26.8105 13.5798Z" fill="#13110C"/>
<path d="M26.7004 9.27002C29.0621 7.1588 31.7678 5.46769 34.7004 4.27002C34.8604 4.59002 35.0105 4.93002 35.1505 5.27002C31.9893 6.52947 29.1125 8.40985 26.6904 10.8L26.7004 9.27002Z" fill="#13110C"/>
<path d="M26.5801 4.78996C28.3791 3.23002 30.3365 1.86258 32.4202 0.709961C32.6702 0.979961 32.9001 1.25996 33.1301 1.55996C30.7862 2.86654 28.6016 4.44038 26.6201 6.24996L26.5801 4.78996Z" fill="#13110C"/>
<path d="M24.4207 33.1398C22.0607 30.2598 18.4207 28.6198 15.9207 27.6698C15.6333 27.2034 15.3696 26.7228 15.1306 26.2298H15.2306C18.9706 27.5598 21.8707 28.9698 24.4307 31.4698V29.3598C21.7169 25.9873 17.9664 23.6042 13.7606 22.5798C13.6506 22.1898 13.5406 21.7798 13.4506 21.3598C17.6759 22.26 21.5186 24.4469 24.4506 27.6198V24.8598C21.4246 21.4733 17.395 19.1432 12.9506 18.2098C12.9506 17.8198 12.8806 17.4298 12.8506 17.0398C17.2361 17.9276 21.2673 20.0753 24.4506 23.2198V20.4998C21.0706 16.3798 14.8306 14.1498 12.8506 13.4998C12.8506 13.1198 12.8806 12.7498 12.9406 12.3898C15.0506 13.0598 20.3906 14.8098 24.4506 18.9198V16.4098C20.6706 12.1298 14.5306 9.77979 13.4506 9.32979C13.5306 8.96979 13.6106 8.60979 13.7006 8.24979C17.6807 9.737 21.3423 11.9665 24.4906 14.8198V12.3998C23.8406 11.3998 21.2906 8.07979 14.7206 5.24979C14.8606 4.90979 15.0107 4.56979 15.1707 4.24979C18.7138 5.62741 21.8997 7.78788 24.4906 10.5698V7.63979C22.9806 5.43979 19.1706 2.91978 16.7906 1.55978C17.0206 1.25978 17.2606 0.979785 17.5006 0.709785C20.0899 2.069 22.4515 3.82338 24.5006 5.90979V0.529785H25.6506V34.6398H24.5006L24.4207 33.1398Z" fill="#13110C"/>
<path d="M36.9304 18.21C33.2731 19.014 29.8801 20.7345 27.0703 23.21V21.78C29.954 19.4211 33.3579 17.7826 37.0004 17C37.0004 17.43 37.0004 17.82 36.9304 18.21Z" fill="#13110C"/>
<path d="M36.1006 22.5799C32.7769 23.4252 29.7132 25.0773 27.1807 27.3899V25.9499C29.852 23.6896 33.0336 22.1142 36.4506 21.3599C36.3606 21.7799 36.2506 22.1899 36.1406 22.5799H36.1006Z" fill="#13110C"/>
<path d="M34.73 26.2197C34.491 26.7127 34.2273 27.1933 33.9399 27.6597C31.5481 28.5167 29.3045 29.7414 27.29 31.2897V29.9197C29.5478 28.3236 32.0367 27.0826 34.67 26.2397H34.77L34.73 26.2197Z" fill="#13110C"/>
<path d="M0.320312 54.3298H1.45032L2.09033 46.2698C2.14033 45.6498 2.09033 44.6398 2.09033 44.6398C2.09033 44.6398 2.45033 45.6998 2.71033 46.2698L5.4104 52.1898H6.4104L9.13037 46.2698C9.39037 45.6798 9.73035 44.6698 9.73035 44.6698C9.73035 44.6698 9.73035 45.6698 9.73035 46.2698L10.3704 54.3298H11.5004L10.5803 42.8198H9.42041L6.42041 49.5798C6.15041 50.1698 5.86035 50.9898 5.86035 50.9898C5.86035 50.9898 5.56042 50.1698 5.30042 49.5798L2.30042 42.8198H1.14038L0.320312 54.3298Z" fill="#13110C"/>
<path d="M21.12 42.6197C20.3455 42.6047 19.576 42.7464 18.8576 43.0362C18.1392 43.326 17.4868 43.758 16.9395 44.3063C16.3922 44.8545 15.9613 45.5077 15.6727 46.2265C15.3841 46.9454 15.2438 47.7152 15.2601 48.4897C15.2601 50.0439 15.8774 51.5344 16.9764 52.6334C18.0753 53.7323 19.5659 54.3497 21.12 54.3497C22.6742 54.3497 24.1648 53.7323 25.2637 52.6334C26.3627 51.5344 26.98 50.0439 26.98 48.4897C26.9963 47.7152 26.856 46.9454 26.5674 46.2265C26.2788 45.5077 25.848 44.8545 25.3007 44.3063C24.7534 43.758 24.1009 43.326 23.3825 43.0362C22.6641 42.7464 21.8946 42.6047 21.12 42.6197ZM21.12 53.4597C20.4797 53.454 19.8472 53.3183 19.2609 53.0609C18.6746 52.8035 18.1466 52.4297 17.709 51.9622C17.2715 51.4947 16.9334 50.9432 16.7153 50.3411C16.4971 49.7391 16.4034 49.099 16.44 48.4597C16.44 47.2185 16.9332 46.0281 17.8108 45.1505C18.6885 44.2728 19.8788 43.7797 21.12 43.7797C22.3613 43.7797 23.5516 44.2728 24.4293 45.1505C25.3069 46.0281 25.8001 47.2185 25.8001 48.4597C25.8381 49.0994 25.7455 49.74 25.5279 50.3427C25.3103 50.9454 24.9722 51.4975 24.5344 51.9653C24.0965 52.4331 23.568 52.8068 22.981 53.0638C22.394 53.3207 21.7608 53.4554 21.12 53.4597Z" fill="#13110C"/>
<path d="M31.0107 54.3298H32.1407V49.0798H38.8108V54.3298H39.9507V42.8198H38.8108V48.0598H32.1407V42.8198H31.0107V54.3298Z" fill="#13110C"/>
<path d="M44.7207 54.3298H51.5007V53.3198H45.8507V49.0398H50.2207V48.0298H45.8507V43.8298H51.1907V42.8198H44.7207V54.3298Z" fill="#13110C"/>
</svg>
