<svg width="18" height="14" viewBox="0 0 18 14" fill="none" xmlns="http://www.w3.org/2000/svg">
<path d="M8.64047 10.1999C8.58954 10.2001 8.53913 10.1895 8.49258 10.1689C8.44604 10.1482 8.40441 10.1178 8.37045 10.0799C7.19047 8.82902 6.5332 7.17445 6.5332 5.45486C6.5332 3.73527 7.19047 2.08071 8.37045 0.829865C8.40424 0.791558 8.44579 0.760882 8.49234 0.739868C8.53889 0.718854 8.5894 0.708008 8.64047 0.708008C8.69155 0.708008 8.74202 0.718854 8.78857 0.739868C8.83513 0.760882 8.87668 0.791558 8.91046 0.829865C10.0904 2.08071 10.7477 3.73527 10.7477 5.45486C10.7477 7.17445 10.0904 8.82902 8.91046 10.0799C8.87651 10.1178 8.83487 10.1482 8.78833 10.1689C8.74179 10.1895 8.6914 10.2001 8.64047 10.1999ZM8.64047 1.61987C7.7302 2.69034 7.23035 4.04969 7.23035 5.45486C7.23035 6.86004 7.7302 8.21942 8.64047 9.28989C9.55075 8.21942 10.0506 6.86004 10.0506 5.45486C10.0506 4.04969 9.55075 2.69034 8.64047 1.61987Z" fill="#5B5755" stroke="#5B5755" stroke-width="0.25" stroke-miterlimit="10"/>
<path d="M8.64023 13.3698C8.58865 13.3682 8.53796 13.3558 8.49146 13.3334C8.44496 13.311 8.40366 13.2791 8.37021 13.2398C7.82034 12.5911 7.37194 11.8628 7.04022 11.0798C7.02223 11.0372 7.01287 10.9914 7.0127 10.9451C7.01252 10.8988 7.02155 10.8529 7.03922 10.8102C7.05689 10.7674 7.08285 10.7285 7.11563 10.6959C7.14842 10.6632 7.18738 10.6373 7.23023 10.6198C7.27287 10.6018 7.31864 10.5925 7.36493 10.5923C7.41122 10.5921 7.4571 10.6011 7.49988 10.6188C7.54266 10.6365 7.5815 10.6625 7.61417 10.6953C7.64684 10.728 7.6727 10.767 7.69022 10.8098C7.93538 11.3949 8.25467 11.9461 8.64023 12.4498C9.02579 11.9461 9.34505 11.3949 9.59021 10.8098C9.60773 10.767 9.63359 10.728 9.66626 10.6953C9.69893 10.6625 9.73777 10.6365 9.78055 10.6188C9.82333 10.6011 9.86921 10.5921 9.9155 10.5923C9.96179 10.5925 10.0076 10.6018 10.0502 10.6198C10.093 10.6373 10.132 10.6632 10.1648 10.6959C10.1976 10.7285 10.2235 10.7674 10.2412 10.8102C10.2589 10.8529 10.2679 10.8988 10.2677 10.9451C10.2676 10.9914 10.2582 11.0372 10.2402 11.0798C9.90849 11.8628 9.46009 12.5911 8.91022 13.2398C8.87677 13.2791 8.83547 13.311 8.78897 13.3334C8.74247 13.3558 8.69181 13.3682 8.64023 13.3698Z" fill="#5B5755" stroke="#5B5755" stroke-width="0.25" stroke-miterlimit="10"/>
<path d="M8.65035 10.1998C8.5625 10.2001 8.47773 10.1674 8.41289 10.1081C8.34806 10.0488 8.30788 9.96733 8.30035 9.8798C8.29481 9.83434 8.29852 9.78821 8.31124 9.74421C8.32397 9.70021 8.34546 9.65925 8.37441 9.62376C8.40336 9.58827 8.43918 9.559 8.47973 9.5377C8.52027 9.5164 8.56469 9.5035 8.61034 9.49979C11.9603 9.1898 13.8004 7.49978 14.2204 4.26978C12.8767 4.38769 11.6121 4.95488 10.6304 5.8798C10.5641 5.9461 10.4741 5.98335 10.3804 5.98335C10.2866 5.98335 10.1967 5.9461 10.1304 5.8798C10.0641 5.8135 10.0268 5.72357 10.0268 5.6298C10.0268 5.53603 10.0641 5.4461 10.1304 5.3798C11.3462 4.24553 12.9289 3.58547 14.5904 3.51978C14.6415 3.51555 14.6929 3.52228 14.7412 3.53953C14.7895 3.55677 14.8335 3.58414 14.8704 3.61979C14.9055 3.65701 14.9325 3.70111 14.9497 3.74931C14.9669 3.7975 14.974 3.84874 14.9704 3.89979C14.6304 7.72979 12.5104 9.83981 8.68035 10.1998H8.65035Z" fill="#5B5755" stroke="#5B5755" stroke-width="0.25" stroke-miterlimit="10"/>
<path d="M12.511 11.9999C11.0146 11.9519 9.57776 11.4025 8.43101 10.4399C8.35675 10.3842 8.30766 10.3013 8.29454 10.2094C8.28141 10.1176 8.30531 10.0242 8.361 9.94995C8.4167 9.87569 8.49964 9.82658 8.59153 9.81345C8.68343 9.80032 8.77676 9.82425 8.85102 9.87995C9.85452 10.7864 11.1587 11.2883 12.511 11.2883C13.8633 11.2883 15.1675 10.7864 16.171 9.87995C15.2225 9.09826 14.0638 8.61462 12.841 8.48993C12.795 8.48738 12.75 8.47577 12.7085 8.45578C12.667 8.43579 12.6299 8.40782 12.5992 8.37345C12.5686 8.33907 12.545 8.299 12.5299 8.2555C12.5147 8.212 12.5083 8.16592 12.511 8.11994C12.5105 8.07205 12.5203 8.02461 12.54 7.98093C12.5596 7.93725 12.5885 7.89838 12.6246 7.86698C12.6608 7.83558 12.7033 7.81241 12.7493 7.79911C12.7953 7.78581 12.8437 7.78269 12.891 7.78995C14.4063 7.95004 15.8315 8.58734 16.961 9.60993C17.0006 9.64251 17.0321 9.68388 17.0529 9.73075C17.0738 9.77761 17.0834 9.82871 17.081 9.87995C17.0812 9.93088 17.0707 9.98129 17.05 10.0278C17.0293 10.0744 16.999 10.116 16.961 10.1499C15.742 11.2702 14.1653 11.9222 12.511 11.9899V11.9999Z" fill="#5B5755" stroke="#5B5755" stroke-width="0.25" stroke-miterlimit="10"/>
<path d="M4.77054 11.9997C3.11628 11.9319 1.53961 11.28 0.320554 10.1597C0.28259 10.1257 0.252251 10.0841 0.231565 10.0376C0.210879 9.99101 0.200308 9.94063 0.200544 9.8897C0.198188 9.83847 0.207805 9.78737 0.228635 9.7405C0.249465 9.69363 0.280946 9.65226 0.320554 9.61968C1.45279 8.59517 2.88178 7.95771 4.40054 7.79967C4.44682 7.79556 4.49346 7.801 4.53756 7.8156C4.58167 7.83021 4.62231 7.85368 4.65698 7.8846C4.69165 7.91553 4.7196 7.95323 4.73913 7.99538C4.75867 8.03753 4.76935 8.08325 4.77054 8.12969C4.77324 8.17567 4.76684 8.22172 4.75171 8.26522C4.73657 8.30872 4.713 8.34883 4.68234 8.3832C4.65168 8.41757 4.61455 8.44554 4.57306 8.46554C4.53156 8.48553 4.48654 8.49713 4.44055 8.49968C3.21773 8.62437 2.05912 9.10801 1.11055 9.8897C2.11405 10.7962 3.41823 11.298 4.77054 11.298C6.12284 11.298 7.42704 10.7962 8.43054 9.8897C8.5048 9.834 8.59814 9.81007 8.69003 9.8232C8.78192 9.83633 8.86486 9.88542 8.92056 9.95968C8.97626 10.0339 9.00015 10.1273 8.98703 10.2192C8.9739 10.3111 8.92481 10.394 8.85055 10.4497C7.7038 11.4122 6.26693 11.9616 4.77054 12.0097V11.9997Z" fill="#5B5755" stroke="#5B5755" stroke-width="0.25" stroke-miterlimit="10"/>
<path d="M8.63029 10.2C4.80029 9.83999 2.69028 7.71997 2.34028 3.89997C2.33568 3.84891 2.34236 3.79747 2.35983 3.74927C2.3773 3.70108 2.40514 3.65732 2.44138 3.62107C2.47763 3.58482 2.52139 3.557 2.56959 3.53953C2.61778 3.52206 2.66923 3.51536 2.72028 3.51996C4.38177 3.58565 5.96444 4.24571 7.18028 5.37998C7.24658 5.44628 7.28382 5.53621 7.28382 5.62998C7.28382 5.72375 7.24658 5.81368 7.18028 5.87998C7.11397 5.94628 7.02404 5.98353 6.93028 5.98353C6.83651 5.98353 6.74658 5.94628 6.68028 5.87998C5.69858 4.95506 4.43389 4.38787 3.09028 4.26996C3.51028 7.47996 5.3503 9.18998 8.70029 9.49998C8.74595 9.50368 8.79036 9.51658 8.83091 9.53788C8.87146 9.55918 8.90727 9.58845 8.93623 9.62394C8.96518 9.65943 8.98667 9.70039 8.9994 9.74439C9.01212 9.78839 9.01583 9.83452 9.01029 9.87998C9.00276 9.96751 8.96258 10.049 8.89774 10.1083C8.8329 10.1676 8.74814 10.2003 8.66029 10.2H8.63029Z" fill="#5B5755" stroke="#5B5755" stroke-width="0.25" stroke-miterlimit="10"/>
</svg>
