<svg width="16" height="21" viewBox="0 0 16 21" fill="none" xmlns="http://www.w3.org/2000/svg">
<path d="M1.20032 8.99982H14.4703C14.5289 9.00904 14.5887 9.00549 14.6458 8.98938C14.7028 8.97327 14.7555 8.94499 14.8005 8.90649C14.8456 8.868 14.8818 8.82022 14.9066 8.76642C14.9314 8.71262 14.9442 8.65403 14.9442 8.59479C14.9442 8.53555 14.9314 8.47702 14.9066 8.42322C14.8818 8.36942 14.8456 8.32163 14.8005 8.28314C14.7555 8.24465 14.7028 8.21637 14.6458 8.20026C14.5887 8.18414 14.5289 8.1806 14.4703 8.18982H1.20032C1.1418 8.1806 1.08203 8.18414 1.02502 8.20026C0.968017 8.21637 0.91515 8.24465 0.870117 8.28314C0.825085 8.32163 0.788952 8.36942 0.76416 8.42322C0.739369 8.47702 0.726563 8.53555 0.726562 8.59479C0.726563 8.65403 0.739369 8.71262 0.76416 8.76642C0.788952 8.82022 0.825085 8.868 0.870117 8.90649C0.91515 8.94499 0.968017 8.97327 1.02502 8.98938C1.08203 9.00549 1.1418 9.00904 1.20032 8.99982Z" fill="#5B5755"/>
<path d="M11.8298 11.1299C11.7773 11.1181 11.723 11.1167 11.6699 11.1259C11.6169 11.135 11.5661 11.1546 11.5206 11.1834C11.4751 11.2122 11.4358 11.2496 11.4048 11.2937C11.3738 11.3377 11.3517 11.3874 11.3398 11.4399C11.1457 12.1883 10.7164 12.8545 10.1151 13.3406C9.51383 13.8267 8.77234 14.1069 7.99988 14.1399C7.89114 14.1399 7.78685 14.1831 7.70996 14.26C7.63307 14.3368 7.58984 14.4411 7.58984 14.5499C7.58984 14.6586 7.63307 14.7629 7.70996 14.8398C7.78685 14.9167 7.89114 14.9599 7.99988 14.9599C7.99988 14.9599 11.3999 14.7999 12.1099 11.6199C12.1348 11.5179 12.1197 11.4102 12.0676 11.319C12.0155 11.2279 11.9304 11.1602 11.8298 11.1299Z" fill="#5B5755"/>
<path d="M15.2906 10.9998C15.2115 10.9263 15.1085 10.8837 15.0006 10.8798H14.1306C14.1306 10.6698 14.1306 10.4597 14.1306 10.2397V10.1298C14.128 10.0228 14.0837 9.92105 14.0071 9.84631C13.9305 9.77157 13.8276 9.7297 13.7206 9.72974H1.89062C1.78435 9.73215 1.6829 9.77477 1.60681 9.849C1.53072 9.92323 1.48563 10.0236 1.48059 10.1298V10.2397C1.48059 10.4597 1.48059 10.6698 1.48059 10.8798H0.640625C0.585931 10.8797 0.53173 10.8906 0.481323 10.9119C0.430916 10.9331 0.385251 10.9642 0.347046 11.0034C0.30884 11.0425 0.278917 11.0889 0.258911 11.1398C0.238904 11.1907 0.229256 11.2451 0.23059 11.2997V11.6597C0.233131 11.7677 0.277169 11.8705 0.353515 11.9468C0.429861 12.0232 0.532685 12.0672 0.640625 12.0698C0.741712 12.07 0.839121 12.032 0.91333 11.9634C0.987538 11.8947 1.03307 11.8006 1.04065 11.6998H1.6106C1.81338 12.535 2.18386 13.3204 2.69958 14.008C3.21531 14.6956 3.86551 15.2712 4.6106 15.6998L2.05066 20.0098C2.01364 20.0718 1.99366 20.1426 1.9928 20.2149C1.99194 20.2872 2.01012 20.3584 2.04565 20.4213C2.08119 20.4843 2.13274 20.5367 2.19507 20.5733C2.25739 20.6099 2.32835 20.6294 2.40063 20.6298C2.47126 20.6294 2.54061 20.6108 2.60193 20.5757C2.66325 20.5407 2.71444 20.4904 2.75061 20.4297L5.35059 16.0598C6.8745 16.6732 8.57667 16.6732 10.1006 16.0598L12.7106 20.4297C12.7452 20.4918 12.7961 20.5432 12.8578 20.5785C12.9195 20.6137 12.9896 20.6315 13.0607 20.6298C13.1347 20.6286 13.2071 20.6079 13.2706 20.5698C13.3174 20.543 13.3583 20.507 13.3909 20.4641C13.4234 20.4211 13.4469 20.3719 13.46 20.3196C13.473 20.2673 13.4754 20.2129 13.4669 20.1596C13.4584 20.1064 13.4393 20.0554 13.4106 20.0098L10.8406 15.6998C11.5857 15.2712 12.2359 14.6956 12.7516 14.008C13.2673 13.3204 13.6378 12.535 13.8406 11.6998H14.4406C14.4481 11.8006 14.4937 11.8947 14.5679 11.9634C14.6421 12.032 14.7395 12.07 14.8406 12.0698C14.8944 12.0698 14.9478 12.0592 14.9976 12.0386C15.0473 12.018 15.0924 11.9877 15.1305 11.9496C15.1686 11.9116 15.1988 11.8664 15.2194 11.8167C15.24 11.7669 15.2506 11.7136 15.2506 11.6597V11.2997C15.3008 11.2082 15.3151 11.1013 15.2906 10.9998ZM7.84058 15.7498C6.43312 15.7494 5.07912 15.2105 4.0564 14.2436C3.03367 13.2767 2.41976 11.955 2.34058 10.5497H13.3406C13.2492 11.9461 12.63 13.2554 11.6085 14.2118C10.5871 15.1682 9.23991 15.7002 7.84058 15.6998V15.7498Z" fill="#5B5755"/>
<path d="M7.30999 3.7498L7.7099 3.93981C7.7799 3.93981 8.47994 4.34981 8.24994 5.00981C8.01994 5.66981 7.06997 5.66979 7.02997 5.66979C6.92123 5.66979 6.81694 5.71301 6.74005 5.7899C6.66316 5.86679 6.61993 5.97108 6.61993 6.07982C6.61993 6.18856 6.66316 6.29285 6.74005 6.36974C6.81694 6.44663 6.92123 6.48979 7.02997 6.48979H7.10992C7.52807 6.52333 7.9462 6.42453 8.30511 6.20738C8.66403 5.99024 8.94557 5.66579 9.10992 5.27983C9.22844 4.87083 9.19201 4.43247 9.0075 4.04869C8.823 3.66491 8.50337 3.36267 8.10992 3.19981L7.71991 3.01982C7.63991 3.01982 6.94998 2.5798 7.16998 1.9398C7.38998 1.2998 8.33995 1.27983 8.38995 1.27983C8.4433 1.2839 8.49694 1.2772 8.54767 1.26018C8.59839 1.24315 8.64514 1.21614 8.68524 1.18071C8.72533 1.14528 8.75793 1.10213 8.78106 1.05388C8.8042 1.00563 8.81736 0.953275 8.81988 0.899827C8.82823 0.792617 8.79412 0.686415 8.72491 0.604112C8.6557 0.521808 8.55694 0.469991 8.44989 0.459824C8.02364 0.41525 7.59436 0.508763 7.22528 0.726609C6.8562 0.944455 6.56692 1.27507 6.39996 1.66979C6.2817 2.06812 6.30812 2.49546 6.47467 2.87615C6.64122 3.25683 6.93719 3.56631 7.30999 3.7498Z" fill="#5B5755"/>
<path d="M3.89976 4.41979L4.18967 4.5598C4.27967 4.6098 4.68978 4.8398 4.54978 5.2498C4.40978 5.6598 3.75972 5.66979 3.73972 5.66979C3.68587 5.66709 3.63205 5.67507 3.58128 5.69322C3.5305 5.71138 3.48377 5.73939 3.44382 5.77562C3.40388 5.81185 3.3715 5.85558 3.34849 5.90434C3.32548 5.95311 3.31235 6.00594 3.30979 6.0598C3.30572 6.11315 3.3123 6.16679 3.32932 6.21751C3.34635 6.26824 3.37336 6.31505 3.40879 6.35515C3.44422 6.39524 3.48737 6.42778 3.53562 6.45091C3.58387 6.47405 3.63623 6.48727 3.68967 6.48979H3.78977C4.11727 6.50369 4.44092 6.41474 4.71531 6.2354C4.9897 6.05606 5.20096 5.79534 5.31968 5.48979C5.42297 5.16394 5.40263 4.81144 5.26243 4.49968C5.12223 4.18792 4.87211 3.93874 4.55979 3.79979L4.26975 3.65978C4.26975 3.65978 3.75977 3.38978 3.90977 2.97978C4.05977 2.56978 4.67969 2.54979 4.70969 2.54979C4.76356 2.55388 4.8178 2.54729 4.86912 2.53038C4.92043 2.51347 4.96788 2.48659 5.00877 2.45128C5.04965 2.41597 5.08308 2.37294 5.10728 2.32463C5.13147 2.27633 5.14596 2.22368 5.14976 2.16979C5.15384 2.11591 5.14726 2.0618 5.13035 2.01048C5.11344 1.95917 5.08656 1.91166 5.05125 1.87077C5.01593 1.82989 4.97284 1.7964 4.92454 1.7722C4.87623 1.748 4.82364 1.73358 4.76975 1.72978C4.42474 1.69482 4.07779 1.77361 3.78171 1.95415C3.48564 2.13468 3.25665 2.40706 3.12974 2.72978C3.03161 3.05696 3.05562 3.40864 3.19724 3.71947C3.33886 4.0303 3.58848 4.27914 3.89976 4.41979Z" fill="#5B5755"/>
<path d="M10.8503 4.4499C11.0174 4.52577 11.1699 4.63073 11.3003 4.7599C11.3652 4.82371 11.4086 4.90607 11.4247 4.99562C11.4408 5.08516 11.4288 5.17748 11.3903 5.2599C11.3053 5.3954 11.185 5.50516 11.0423 5.5774C10.8996 5.64964 10.7398 5.6816 10.5802 5.66987C10.473 5.67211 10.3704 5.71439 10.2927 5.7884C10.2149 5.86242 10.1678 5.96284 10.1603 6.0699C10.159 6.12374 10.1683 6.1773 10.1877 6.22755C10.2071 6.2778 10.2361 6.32374 10.2732 6.36274C10.3104 6.40175 10.3549 6.43309 10.4041 6.45491C10.4533 6.47672 10.5065 6.48858 10.5604 6.48988C10.8715 6.49731 11.1786 6.41916 11.4484 6.26399C11.7182 6.10881 11.9402 5.88256 12.0903 5.60987C12.1956 5.38722 12.2329 5.13841 12.1973 4.89466C12.1617 4.65092 12.0549 4.42312 11.8903 4.23988C11.6935 4.03331 11.4637 3.86095 11.2103 3.72987C10.9403 3.57987 10.7803 3.47992 10.7103 3.27992C10.6719 3.17971 10.5967 3.09795 10.5 3.05146C10.4034 3.00498 10.2924 2.99729 10.1902 3.02992C10.139 3.04672 10.0918 3.07368 10.0513 3.1092C10.0108 3.14473 9.97786 3.18808 9.95452 3.23664C9.93117 3.28521 9.9179 3.33796 9.91545 3.3918C9.91301 3.44563 9.92138 3.4994 9.94023 3.54988C10.0253 3.75236 10.1496 3.93609 10.3057 4.09053C10.4619 4.24496 10.6469 4.36709 10.8503 4.4499Z" fill="#5B5755"/>
<path d="M10.9098 2.70975C10.9762 2.70873 11.0414 2.69152 11.0997 2.6597C11.2481 2.58568 11.4153 2.55786 11.5797 2.57974C11.6331 2.58243 11.6865 2.57439 11.7367 2.55612C11.7869 2.53785 11.8329 2.50971 11.8721 2.47336C11.9112 2.43701 11.9427 2.39317 11.9646 2.34445C11.9865 2.29574 11.9985 2.24314 11.9997 2.18973C12.0024 2.13587 11.9945 2.082 11.9763 2.03122C11.9582 1.98044 11.9301 1.93377 11.8939 1.89383C11.8577 1.85389 11.814 1.82144 11.7652 1.79843C11.7165 1.77542 11.6636 1.7623 11.6097 1.75974C11.3022 1.73691 10.9942 1.79917 10.7197 1.93973C10.6402 1.98307 10.5772 2.05152 10.5406 2.13443C10.5041 2.21734 10.4961 2.31002 10.5178 2.39798C10.5395 2.48594 10.5897 2.56424 10.6606 2.62064C10.7315 2.67704 10.8192 2.70839 10.9098 2.70975Z" fill="#5B5755"/>
</svg>
