<svg width="999" height="554" viewBox="0 0 999 554" fill="none" xmlns="http://www.w3.org/2000/svg">
<path d="M99.5694 0.910169C86.6631 0.910169 74.2852 6.03651 65.1581 15.1617C56.031 24.287 50.9021 36.6638 50.8994 49.5702V88.8602H120.549L147.549 42.0902C145.799 30.6224 139.995 20.1621 131.192 12.6068C122.389 5.05148 111.17 0.90166 99.5694 0.910169Z" fill="#A2B2C7"/>
<path d="M729.7 415.25H656.85V434.54H639.22V548.44H703.52V458.88H729.7V415.25Z" fill="#EFEEEE" stroke="#5B5755" stroke-miterlimit="10"/>
<path d="M729.24 440.97H703.52V539.43H729.24V440.97Z" fill="#A2B2C7" stroke="#5B5755" stroke-miterlimit="10"/>
<path d="M46.7298 89.1501V112.12H30.1998V83.6401H0.799805V311.45H46.7298V252.66H139.97V89.1501H46.7298Z" fill="#EFEEEE" stroke="#5B5755" stroke-miterlimit="10"/>
<path d="M275.46 538.34H206.56V543.85H275.46V553.03H280.05V543.85V538.34H275.46Z" fill="#EFEEEE" stroke="#5B5755" stroke-miterlimit="10"/>
<path d="M251.52 474.04V489.65H173.5V473.12H141.34V489.65V538.34H290.62V474.04H251.52Z" fill="#EFEEEE" stroke="#5B5755" stroke-miterlimit="10"/>
<path d="M136.29 513.54H290.16" stroke="#5B5755" stroke-miterlimit="10"/>
<path d="M141.34 473.12H45.8096V513.54H141.34V473.12Z" fill="#EFEEEE" stroke="#5B5755" stroke-miterlimit="10"/>
<path d="M130 245H46V473H130V245Z" fill="#D9CEC7" stroke="#5B5755" stroke-miterlimit="10"/>
<path d="M198.3 68.8403H139.51V129.57H198.3V68.8403Z" fill="#EFEEEE" stroke="#5B5755" stroke-miterlimit="10"/>
<path d="M141.34 513.54H45.8096V538.34H141.34V513.54Z" fill="#EFEEEE" stroke="#5B5755" stroke-miterlimit="10"/>
<path d="M123.89 429.98H52.1299V460.63H123.89V429.98Z" fill="#D9CEC7" stroke="#5B5755" stroke-miterlimit="10"/>
<path d="M892.92 342.2H729.24V523.01H892.92V342.2Z" fill="#D9CEC7" stroke="#5B5755" stroke-miterlimit="10"/>
<path d="M784.19 357.65H753.54V452.65H784.19V357.65Z" fill="#D9CEC7" stroke="#5B5755" stroke-miterlimit="10"/>
<path d="M649.33 455.41H290.16V538.33H649.33V455.41Z" fill="#D9CEC7" stroke="#5B5755" stroke-miterlimit="10"/>
<path d="M198.3 129.49H139.51V252.66H198.3V129.49Z" fill="#EFEEEE" stroke="#5B5755" stroke-miterlimit="10"/>
<path d="M920.18 435C921.986 437.675 924.422 439.866 927.272 441.381C930.123 442.895 933.302 443.687 936.53 443.687C939.758 443.687 942.936 442.895 945.787 441.381C948.638 439.866 951.073 437.675 952.88 435L949.2 432.24C947.825 434.347 945.946 436.078 943.734 437.275C941.521 438.473 939.045 439.101 936.53 439.101C934.014 439.101 931.538 438.473 929.326 437.275C927.113 436.078 925.235 434.347 923.86 432.24L920.18 435Z" fill="#D9CEC7" stroke="#5B5755" stroke-miterlimit="10"/>
<path d="M936.53 437.29C943.886 437.29 949.85 431.327 949.85 423.97C949.85 416.614 943.886 410.65 936.53 410.65C929.174 410.65 923.21 416.614 923.21 423.97C923.21 431.327 929.174 437.29 936.53 437.29Z" fill="#EFEEEE" stroke="#5B5755" stroke-miterlimit="10"/>
<path d="M958.42 363.53C955.745 365.337 953.554 367.772 952.04 370.623C950.525 373.474 949.733 376.652 949.733 379.88C949.733 383.108 950.525 386.287 952.04 389.137C953.554 391.988 955.745 394.423 958.42 396.23L961.18 392.55C959.074 391.175 957.343 389.297 956.145 387.084C954.947 384.872 954.32 382.396 954.32 379.88C954.32 377.365 954.947 374.888 956.145 372.676C957.343 370.464 959.074 368.585 961.18 367.21L958.42 363.53Z" fill="#D9CEC7" stroke="#5B5755" stroke-miterlimit="10"/>
<path d="M969.45 393.2C976.806 393.2 982.77 387.236 982.77 379.88C982.77 372.524 976.806 366.56 969.45 366.56C962.093 366.56 956.13 372.524 956.13 379.88C956.13 387.236 962.093 393.2 969.45 393.2Z" fill="#EFEEEE" stroke="#5B5755" stroke-miterlimit="10"/>
<path d="M997.74 458C995.933 455.325 993.498 453.134 990.647 451.62C987.797 450.105 984.618 449.313 981.39 449.313C978.162 449.313 974.983 450.105 972.133 451.62C969.282 453.134 966.847 455.325 965.04 458L968.72 460.76C970.094 458.653 971.972 456.923 974.183 455.725C976.394 454.527 978.87 453.899 981.385 453.899C983.9 453.899 986.376 454.527 988.587 455.725C990.799 456.923 992.676 458.653 994.05 460.76L997.74 458Z" fill="#D9CEC7" stroke="#5B5755" stroke-miterlimit="10"/>
<path d="M981.389 482.3C988.746 482.3 994.709 476.337 994.709 468.98C994.709 461.624 988.746 455.66 981.389 455.66C974.033 455.66 968.069 461.624 968.069 468.98C968.069 476.337 974.033 482.3 981.389 482.3Z" fill="#EFEEEE" stroke="#5B5755" stroke-miterlimit="10"/>
</svg>
