<svg width="16" height="16" viewBox="0 0 16 16" fill="none" xmlns="http://www.w3.org/2000/svg">
<path d="M3.91967 3.7498V14.5698C3.92465 14.633 3.92465 14.6966 3.91967 14.7598C3.91274 14.8254 3.88286 14.8865 3.83529 14.9322C3.78772 14.978 3.72551 15.0055 3.65966 15.0098C3.59281 15.0176 3.5253 15.0019 3.46874 14.9654C3.41218 14.929 3.37009 14.8739 3.34966 14.8098C3.33918 14.7435 3.33918 14.676 3.34966 14.6098V13.4198H0.909658V14.6698C0.909658 14.8798 0.77966 15.0198 0.59966 15.0098C0.41966 14.9998 0.299642 14.8798 0.299642 14.6598C0.299642 13.6598 0.299642 12.6598 0.299642 11.6598V0.999803C0.294651 0.903201 0.294651 0.806397 0.299642 0.709795C0.295503 0.668781 0.299876 0.627376 0.312459 0.588121C0.325042 0.548867 0.345581 0.51261 0.372793 0.481645C0.400004 0.450681 0.433289 0.425651 0.470602 0.408129C0.507914 0.390606 0.548445 0.380974 0.589651 0.379808C0.632933 0.378319 0.67604 0.385924 0.716207 0.402117C0.756374 0.418309 0.792717 0.442712 0.822866 0.473802C0.853014 0.504893 0.876307 0.541982 0.891256 0.582628C0.906205 0.623274 0.912478 0.666579 0.909658 0.709795V1.91982H3.34966V0.749803C3.34132 0.700221 3.34478 0.649362 3.35976 0.601366C3.37474 0.553369 3.40081 0.509595 3.43587 0.473558C3.47094 0.437522 3.51398 0.410256 3.56154 0.393968C3.60911 0.377681 3.65985 0.372826 3.70965 0.379808H5.61965C5.88965 0.379808 5.98964 0.479813 5.98964 0.759813C5.98964 1.03981 5.98964 1.49981 5.98964 1.87981C5.98682 1.89822 5.98771 1.91701 5.99224 1.93508C5.99677 1.95314 6.00487 1.9701 6.01604 1.985C6.02722 1.9999 6.04126 2.01243 6.05733 2.02184C6.07341 2.03124 6.09118 2.03737 6.10964 2.03981C6.47417 2.13572 6.81255 2.31218 7.09984 2.5562C7.38713 2.80022 7.61602 3.1056 7.76964 3.44982C8.70964 5.44982 9.63964 7.44981 10.5796 9.37981C11.1096 10.4898 11.6397 11.5898 12.1597 12.6998C12.2175 12.8575 12.3246 12.9922 12.4651 13.0841C12.6056 13.176 12.7721 13.2201 12.9397 13.2098H14.7396C15.0796 13.2098 15.1796 13.3098 15.1796 13.6498V14.6498C15.1796 14.9098 15.0697 15.0198 14.8097 15.0298H12.9097C12.3983 15.0454 11.8943 14.9056 11.4641 14.6289C11.0338 14.3521 10.6976 13.9515 10.4997 13.4798C9.62965 11.6698 8.77966 9.8398 7.90966 8.0298C7.31966 6.7698 6.71966 5.51981 6.12966 4.25981C6.06833 4.10324 5.95863 3.97031 5.81655 3.88039C5.67447 3.79046 5.5074 3.74823 5.33965 3.75981H3.95965L3.91967 3.7498ZM3.91967 3.12981H5.24965C5.54484 3.10945 5.83883 3.18382 6.08883 3.34209C6.33883 3.50036 6.53181 3.73429 6.63967 4.00981L8.49965 7.93981C9.33965 9.69314 10.173 11.4498 10.9997 13.2098C11.1334 13.5184 11.3427 13.7884 11.6084 13.9946C11.8741 14.2009 12.1875 14.3368 12.5196 14.3898C12.7594 14.4048 12.9999 14.4048 13.2396 14.3898C13.6596 14.3898 14.0797 14.3898 14.5097 14.3898V13.7998H12.8797C12.5994 13.8157 12.3212 13.7432 12.0843 13.5925C11.8475 13.4417 11.664 13.2204 11.5597 12.9598L7.91967 5.2798C7.63967 4.6898 7.36966 4.09979 7.06966 3.51979C6.94726 3.269 6.76431 3.05268 6.53734 2.89031C6.31038 2.72794 6.04653 2.62465 5.76964 2.5898C5.16964 2.5198 4.55967 2.5898 3.94967 2.5298L3.91967 3.12981ZM0.85964 4.72981H3.28966V3.72981H0.85964V4.72981ZM3.29964 6.9998H0.869649V7.9998H3.29964V6.9998ZM0.869649 12.8098H3.29964V11.8098H0.869649V12.8098ZM3.29964 6.3698V5.3698H0.879659V6.3698H3.29964ZM3.29964 9.59981V8.59981H0.879659V9.59981H3.29964ZM3.29964 11.1998V10.1998H0.879659V11.1998H3.29964ZM3.29964 3.1498V2.54979H0.879659V3.1498H3.29964ZM5.29964 1.9298V0.999803H3.89965V1.9298H5.29964Z" fill="#5B5755"/>
<path d="M13.6506 15.1399H12.8706C12.3364 15.1542 11.8103 15.0073 11.3609 14.7184C10.9114 14.4294 10.5593 14.0118 10.3506 13.5199L8.5606 9.73988L7.1906 6.84989C6.7806 5.99989 6.38061 5.1399 5.98061 4.2899C5.92524 4.15699 5.83023 4.0444 5.70855 3.96745C5.58686 3.8905 5.44439 3.85292 5.30059 3.85987H4.0006V14.7799C3.98143 14.8701 3.93374 14.9518 3.86458 15.0129C3.79543 15.0739 3.70849 15.1111 3.61657 15.119C3.52465 15.1268 3.43262 15.1049 3.35411 15.0564C3.27561 15.008 3.21478 14.9356 3.18059 14.8499C3.16963 14.7703 3.16963 14.6895 3.18059 14.6099C3.18059 14.2999 3.18059 13.9799 3.18059 13.6599V13.5399H1.0006V14.6699C1.00618 14.7296 0.999187 14.7899 0.980091 14.8468C0.960995 14.9036 0.930228 14.9559 0.889729 15.0002C0.849229 15.0444 0.799913 15.0797 0.744953 15.1038C0.689993 15.1278 0.630604 15.1402 0.570606 15.1399C0.509673 15.1403 0.449354 15.1278 0.393635 15.1031C0.337916 15.0784 0.288053 15.0422 0.247395 14.9968C0.206736 14.9514 0.176208 14.8979 0.157795 14.8398C0.139382 14.7817 0.133527 14.7204 0.140614 14.6599V0.659891C0.137905 0.603076 0.146754 0.546309 0.166645 0.493021C0.186536 0.439733 0.217032 0.391038 0.256306 0.349894C0.29558 0.30875 0.342794 0.276018 0.3951 0.253672C0.447405 0.231325 0.503717 0.219824 0.560597 0.219889C0.670848 0.217667 0.777902 0.25691 0.860584 0.329874C0.946877 0.421744 0.993576 0.543895 0.990589 0.669901V1.7599H3.18059V1.51988C3.18059 1.24988 3.18059 0.979879 3.18059 0.709879C3.1728 0.644522 3.17976 0.578247 3.20098 0.51594C3.22219 0.453632 3.25712 0.396882 3.30318 0.349863C3.34924 0.302844 3.40526 0.266768 3.46712 0.244272C3.52898 0.221777 3.5951 0.213442 3.6606 0.219889H5.57061C5.91061 0.219889 6.07061 0.379899 6.07061 0.729899V1.87989C6.45143 1.98122 6.80461 2.16681 7.10405 2.42298C7.4035 2.67915 7.64152 2.99933 7.80059 3.35987L11.1006 10.3099C11.4606 11.0799 11.8306 11.8399 12.1906 12.6099C12.237 12.7475 12.3283 12.8657 12.4497 12.9454C12.5711 13.0252 12.7158 13.062 12.8606 13.0499H14.6706C14.7474 13.0407 14.8252 13.0475 14.8992 13.0699C14.9732 13.0923 15.0418 13.1297 15.1006 13.1799C15.198 13.301 15.2446 13.4551 15.2306 13.6099V14.6099C15.2387 14.6775 15.2312 14.746 15.2089 14.8103C15.1867 14.8747 15.1501 14.9331 15.1019 14.9812C15.0538 15.0294 14.9954 15.066 14.931 15.0882C14.8667 15.1105 14.7982 15.1179 14.7306 15.1099H13.6106L13.6506 15.1399ZM5.30059 3.60987C5.49208 3.60203 5.68133 3.65354 5.84243 3.75736C6.00353 3.86118 6.12864 4.01226 6.20061 4.18989C6.60061 5.03989 7.0006 5.88988 7.4106 6.73988L8.7806 9.6399L10.5706 13.4099C10.76 13.8598 11.081 14.2418 11.4915 14.506C11.9019 14.7701 12.3827 14.9039 12.8706 14.8899H14.7706C14.9606 14.8899 15.0206 14.8299 15.0206 14.6399V13.6399C15.0327 13.5488 15.0114 13.4565 14.9606 13.3799C14.8875 13.3298 14.7985 13.3084 14.7106 13.3199H12.8906C12.7008 13.3257 12.5137 13.2732 12.3546 13.1695C12.1955 13.0658 12.072 12.9159 12.0006 12.7399L10.9206 10.4499L7.62059 3.4499C7.47286 3.12244 7.25465 2.83164 6.98153 2.59828C6.7084 2.36491 6.38711 2.19473 6.04061 2.09989C5.97592 2.08999 5.9177 2.05511 5.87844 2.00276C5.83917 1.95041 5.82198 1.88476 5.83059 1.81989C5.83059 1.48989 5.83059 1.14989 5.83059 0.819895V0.719889C5.83059 0.509889 5.78059 0.459879 5.58059 0.459879H3.67061C3.49061 0.459879 3.43059 0.519879 3.43059 0.709879V1.99989H0.740589V1.4199C0.740589 1.1699 0.740589 0.909891 0.740589 0.659891C0.742362 0.630506 0.737956 0.60106 0.727619 0.573496C0.717283 0.545932 0.701249 0.520862 0.680592 0.499888C0.642106 0.484319 0.599082 0.484319 0.560597 0.499888C0.535177 0.49973 0.510027 0.504968 0.486775 0.515238C0.463522 0.525508 0.442683 0.540564 0.425678 0.559458C0.408674 0.578352 0.395883 0.600655 0.388111 0.624857C0.380339 0.649059 0.377779 0.674637 0.380604 0.6999V14.6999C0.380604 14.7899 0.380597 14.9299 0.560597 14.9299C0.670597 14.9299 0.740589 14.8499 0.740589 14.6999C0.740589 14.5499 0.740589 14.4999 0.740589 14.3899V13.2999H3.43059V14.6099C3.42379 14.663 3.42379 14.7168 3.43059 14.7699C3.44395 14.8085 3.47004 14.8414 3.50457 14.8632C3.53909 14.885 3.58001 14.8944 3.62059 14.8899C3.6589 14.8856 3.6946 14.8684 3.72185 14.8412C3.74911 14.8139 3.76629 14.7782 3.77059 14.7399C3.77596 14.6934 3.77596 14.6464 3.77059 14.5999V3.59989H5.27059L5.30059 3.60987ZM13.7606 14.5299H13.0906C12.8976 14.5451 12.7036 14.5451 12.5106 14.5299C12.1582 14.4754 11.8255 14.332 11.5438 14.1133C11.2621 13.8946 11.0407 13.6078 10.9006 13.2799C10.2806 11.9599 9.6506 10.6499 9.0306 9.32987L7.89061 6.92988L6.54061 4.07987C6.44245 3.8323 6.26892 3.62187 6.04461 3.47831C5.82029 3.33475 5.55653 3.26533 5.29061 3.27989H3.80059V2.5099H3.86058C3.87607 2.502 3.89322 2.49787 3.9106 2.49787C3.92799 2.49787 3.94511 2.502 3.96059 2.5099C4.55059 2.5099 5.18059 2.50989 5.80059 2.55989C6.0971 2.59803 6.37944 2.70942 6.62212 2.88401C6.8648 3.0586 7.06018 3.29088 7.1906 3.55989C7.4106 3.97989 7.6106 4.41988 7.8106 4.83988C7.8906 5.00988 7.96061 5.16987 8.04061 5.32987L11.6806 13.0099C11.7759 13.247 11.9426 13.4485 12.1576 13.5865C12.3727 13.7245 12.6254 13.7921 12.8806 13.7799H14.5106H14.6206V13.8899V14.6099H13.7306L13.7606 14.5299ZM13.0906 14.2799H14.4006V13.9199H12.8806C12.578 13.9315 12.2791 13.8493 12.025 13.6847C11.7708 13.52 11.5737 13.2808 11.4606 12.9999L7.82061 5.32987C7.74061 5.15987 7.6606 4.99988 7.5906 4.83988C7.3906 4.41988 7.1906 3.97989 6.9706 3.56989C6.85842 3.33674 6.69 3.13513 6.48052 2.98326C6.27104 2.83138 6.02707 2.73402 5.77059 2.6999C5.1988 2.64828 4.6244 2.63157 4.05059 2.64988V2.99989H5.2806C5.59644 2.98615 5.90884 3.06995 6.1754 3.23991C6.44197 3.40987 6.64977 3.65776 6.77059 3.9499C7.21059 4.8999 7.66058 5.8399 8.11058 6.7899L9.2506 9.18989C9.8806 10.5099 10.5006 11.8299 11.1206 13.1899C11.2419 13.4823 11.4378 13.7377 11.6888 13.9308C11.9397 14.1238 12.2368 14.2476 12.5506 14.2899C12.7305 14.3018 12.9112 14.2984 13.0906 14.2799ZM3.42061 12.9099H0.750599V11.6799H3.42061V12.9099ZM1.0006 12.6599H3.17061V11.9299H1.0006V12.6599ZM3.42061 11.2999H0.750599V10.0699H3.42061V11.2999ZM1.0006 11.0499H3.17061V10.3199H1.0006V11.0499ZM3.42061 9.68989H0.760609V8.46989H3.42061V9.68989ZM1.0006 9.43989H3.18059V8.70988H1.0006V9.43989ZM3.43059 8.07987H0.750599V6.84989H3.43059V8.07987ZM1.0006 7.82987H3.18059V7.08988H1.0006V7.82987ZM3.42061 6.45988H0.750599V5.23988H3.42061V6.45988ZM1.0006 6.21989H3.18059V5.48988H1.0006V6.21989ZM3.42061 4.84989H0.750599V3.62989H3.42061V4.84989ZM0.990589 4.60987H3.18059V3.86988H1.0006L0.990589 4.60987ZM3.42061 3.23988H0.750599V2.39988H3.42061V3.23988ZM1.0006 2.99989H3.17061V2.65989H1.0006V2.99989ZM5.46059 1.99989H3.8106V0.829874H5.46059V1.99989ZM4.0606 1.74989H5.21059V1.07987H4.0606V1.74989Z" fill="#5B5755"/>
</svg>
