<svg width="15" height="19" viewBox="0 0 15 19" fill="none" xmlns="http://www.w3.org/2000/svg">
<path d="M14.0002 0.729736V6.30975C14.0002 6.46818 13.9689 6.62505 13.9079 6.7713C13.847 6.91755 13.7577 7.0503 13.6452 7.16187C13.5327 7.27343 13.3993 7.36161 13.2525 7.42133C13.1058 7.48104 12.9486 7.51109 12.7902 7.50977V7.50977L13.4002 17.1697C13.4112 17.3326 13.3885 17.496 13.3337 17.6498C13.2788 17.8035 13.1929 17.9443 13.0813 18.0634C12.9697 18.1825 12.8347 18.2774 12.6849 18.3422C12.535 18.4069 12.3735 18.4401 12.2102 18.4398V18.4398C12.047 18.4401 11.8854 18.4069 11.7356 18.3422C11.5857 18.2774 11.4508 18.1825 11.3392 18.0634C11.2276 17.9443 11.1416 17.8035 11.0868 17.6498C11.0319 17.496 11.0093 17.3326 11.0202 17.1697L11.6402 7.50977C11.4897 7.51109 11.3404 7.48254 11.2009 7.42584C11.0614 7.36914 10.9346 7.28543 10.8277 7.17944C10.7207 7.07345 10.6359 6.94732 10.578 6.80835C10.52 6.66938 10.4902 6.5203 10.4902 6.36975V0.729736" stroke="#5B5755" stroke-linecap="round" stroke-linejoin="round"/>
<path d="M11.6299 0.729736V4.98975" stroke="#5B5755" stroke-linecap="round" stroke-linejoin="round"/>
<path d="M12.7705 0.729736V4.98975" stroke="#5B5755" stroke-linecap="round" stroke-linejoin="round"/>
<path d="M3.45058 7.52979L3.34058 9.32977L3.24059 10.9197L2.84058 17.1898C2.82961 17.3526 2.85226 17.516 2.90713 17.6697C2.962 17.8235 3.04792 17.9643 3.15954 18.0834C3.27115 18.2026 3.40608 18.2974 3.55593 18.3622C3.70578 18.4269 3.86735 18.4601 4.03059 18.4598C4.19382 18.4601 4.35539 18.4269 4.50524 18.3622C4.65509 18.2974 4.79003 18.2026 4.90165 18.0834C5.01326 17.9643 5.09918 17.8235 5.15404 17.6697C5.20891 17.516 5.23156 17.3526 5.22059 17.1898L4.82059 10.8298L4.73058 9.41974L4.61059 7.52979" stroke="#5B5755" stroke-linecap="round" stroke-linejoin="round"/>
<path d="M3.45988 7.50983C2.87155 7.38025 2.34492 7.05408 1.96681 6.58508C1.58871 6.11609 1.3817 5.53224 1.37988 4.92981C1.37988 2.97981 2.56988 0.789795 4.02988 0.789795C5.48988 0.789795 6.65988 2.97981 6.66988 4.92981C6.67273 5.53044 6.46991 6.11394 6.09514 6.58331C5.72037 7.05268 5.19624 7.37966 4.60988 7.50983" stroke="#5B5755" stroke-linecap="round" stroke-linejoin="round"/>
</svg>
